<svg width="200" height="37" viewBox="0 0 200 37" fill="none" xmlns="http://www.w3.org/2000/svg">
<path d="M29.6117 2.73981L31.0776 5.48582C31.1749 5.66613 31.2556 5.85472 31.3239 6.05368C31.3302 6.0744 31.3384 6.09513 31.3447 6.11585L29.8788 3.36984C29.8726 3.34911 29.8643 3.32839 29.8581 3.30766C29.7897 3.10871 29.7069 2.92011 29.6117 2.73981Z" fill="#067793"/>
<path d="M29.8788 3.3678L31.3447 6.11382C31.5331 6.68996 31.6552 7.31377 31.7091 7.9894L30.2432 5.24338C30.1893 4.56983 30.0672 3.94394 29.8788 3.3678Z" fill="#067B98"/>
<path d="M30.2411 5.24335L31.707 7.98936C31.7732 8.50748 31.8312 9.123 31.8871 9.83593C31.9409 10.5509 32.0445 11.6369 32.1998 13.0959C32.353 14.5549 32.5642 16.5238 32.8333 19.0024C33.1025 21.4811 33.4689 24.7411 33.9348 28.7845L32.4689 26.0385C32.0051 21.9972 31.6366 18.7351 31.3674 16.2564C31.0983 13.7778 30.8871 11.8089 30.7339 10.3499C30.5807 8.89089 30.4751 7.80491 30.4212 7.08991C30.3674 6.37699 30.3074 5.76146 30.2411 5.24335Z" fill="#067B98"/>
<path d="M58.4863 7.16034L59.9542 9.90636L55.832 21.9453L54.364 19.1993L58.4863 7.16034Z" fill="#067C99"/>
<path d="M29.6303 32.8341L31.0962 35.5801C30.3094 35.5801 29.6655 35.4371 29.1624 35.149C28.6593 34.8609 28.2493 34.4713 27.9305 33.9843C27.8394 33.8454 27.7524 33.7003 27.6717 33.5491L26.2058 30.803C26.2865 30.9543 26.3714 31.0994 26.4646 31.2383C26.7814 31.7253 27.1934 32.1128 27.6965 32.403C28.1996 32.6911 28.8435 32.8341 29.6303 32.8341Z" fill="#056178"/>
<path d="M34.5849 32.834L36.0508 35.5801H31.0983L29.6303 32.834H34.5849Z" fill="#055D73"/>
<path d="M48.2355 2.4455L49.7013 5.19151C49.7552 5.29306 49.8007 5.39876 49.838 5.51275L48.3721 2.76673C48.3348 2.65274 48.2893 2.54497 48.2355 2.4455Z" fill="#067793"/>
<path d="M48.3721 2.76672L49.838 5.51274C49.9353 5.81118 49.9746 6.15106 49.9539 6.53239C49.9477 6.64224 49.9353 6.76037 49.9187 6.88886L48.4528 4.14284C48.4694 4.01642 48.4818 3.89622 48.488 3.78638C48.5087 3.40504 48.4694 3.06516 48.3721 2.76672Z" fill="#067B98"/>
<path d="M48.4529 4.14075L49.9187 6.88676C49.8235 7.60591 49.5605 8.60484 49.1278 9.88355C48.8669 10.6545 48.5709 11.4793 48.2437 12.356L46.7778 9.60999C47.1071 8.73126 47.4011 7.90642 47.6619 7.13753C48.0947 5.85882 48.3576 4.85989 48.4529 4.14075Z" fill="#067793"/>
<path d="M46.7758 9.60999L48.2417 12.356C47.929 13.1933 47.5853 14.0782 47.2106 15.0129C46.4424 16.9279 45.5977 18.9278 44.6784 21.0085C43.7591 23.0934 42.8523 25.0623 41.962 26.9151C41.0696 28.7699 40.2642 30.3968 39.5395 31.7937C39.0716 32.6993 38.6824 33.4268 38.3718 33.976L36.9059 31.23C37.2165 30.6807 37.6057 29.9533 38.0737 29.0476C38.7983 27.6508 39.6037 26.0239 40.4961 24.1691C41.3864 22.3163 42.2912 20.3474 43.2125 18.2625C44.1318 16.1818 44.9745 14.1818 45.7447 12.2669C46.1194 11.3322 46.4631 10.4473 46.7758 9.60999Z" fill="#06738F"/>
<path d="M36.908 31.23L38.3739 33.976C38.2061 34.2744 38.0591 34.5211 37.9391 34.7138L36.4732 31.9678C36.5953 31.775 36.7403 31.5284 36.908 31.23Z" fill="#05708A"/>
<path d="M36.4732 31.9678L37.9391 34.7138C37.9142 34.7511 37.8894 34.7863 37.8625 34.8216L36.3966 32.0755C36.4235 32.0403 36.4484 32.0051 36.4732 31.9678Z" fill="#05708A"/>
<path d="M36.3966 32.0756L37.8625 34.8216C37.8148 34.8838 37.7631 34.9439 37.7093 34.9977L36.2434 32.2517C36.2972 32.1958 36.349 32.1377 36.3966 32.0756Z" fill="#056C85"/>
<path d="M36.2434 32.2517L37.7093 34.9977C37.6533 35.0537 37.5954 35.1055 37.5312 35.1532L36.0653 32.4071C36.1295 32.3595 36.1875 32.3077 36.2434 32.2517Z" fill="#056881"/>
<path d="M36.0653 32.4071L37.5312 35.1531C37.4546 35.2112 37.3738 35.263 37.289 35.3086L35.8231 32.5625C35.91 32.5169 35.9908 32.4651 36.0653 32.4071Z" fill="#05647C"/>
<path d="M35.8231 32.5646L37.2889 35.3107C36.9535 35.491 36.5394 35.5801 36.0487 35.5801L34.5829 32.8341C35.0756 32.8341 35.4897 32.7429 35.8231 32.5646Z" fill="#056178"/>
<path d="M46.7571 32.8341L48.223 35.5801C47.7199 35.5801 47.2023 35.5283 46.6743 35.4206C46.1443 35.3149 45.6764 35.1408 45.2643 34.8962C44.8523 34.6537 44.519 34.3408 44.256 33.9615C44.2146 33.9035 44.1774 33.8413 44.1442 33.7792L42.6783 31.0331C42.7115 31.0953 42.7487 31.1575 42.7901 31.2155C43.051 31.5969 43.3864 31.9077 43.7985 32.1502C44.2105 32.3927 44.6784 32.5688 45.2084 32.6745C45.7364 32.7823 46.252 32.8341 46.7571 32.8341Z" fill="#056178"/>
<path d="M60.5008 25.8105L61.9688 28.5565H53.7594L52.2936 25.8105H60.5008Z" fill="#055D73"/>
<path d="M52.2936 25.8105L53.7594 28.5565L51.8484 34.8506L50.3825 32.1046L52.2936 25.8105Z" fill="#067C9A"/>
<path d="M49.2562 32.834L50.7221 35.5801H48.223L46.7571 32.834H49.2562Z" fill="#055D73"/>
<path d="M50.3825 32.1046L51.8484 34.8506C51.8236 34.9169 51.7946 34.977 51.7615 35.035L50.2956 32.289C50.3287 32.231 50.3577 32.1709 50.3825 32.1046Z" fill="#06738F"/>
<path d="M50.2956 32.289L51.7614 35.035C51.7345 35.0806 51.7076 35.1241 51.6766 35.1656L50.2107 32.4196C50.2417 32.3781 50.2707 32.3346 50.2956 32.289Z" fill="#05708A"/>
<path d="M50.2107 32.4196L51.6766 35.1656C51.6496 35.2008 51.6207 35.236 51.5896 35.2671L50.1237 32.5211C50.1548 32.4879 50.1837 32.4548 50.2107 32.4196Z" fill="#056C85"/>
<path d="M50.1237 32.519L51.5896 35.2651C51.5585 35.2961 51.5254 35.3252 51.4902 35.3521L50.0243 32.6061C50.0595 32.5812 50.0927 32.5522 50.1237 32.519Z" fill="#056881"/>
<path d="M50.0243 32.6082L51.4902 35.3542C51.4488 35.3853 51.4053 35.4143 51.3577 35.4391L49.8918 32.6931C49.9394 32.6683 49.9829 32.6392 50.0243 32.6082Z" fill="#05647C"/>
<path d="M49.8918 32.6931L51.3577 35.4391C51.1817 35.5324 50.9705 35.5801 50.7221 35.5801L49.2562 32.834C49.5046 32.834 49.7158 32.7864 49.8918 32.6931Z" fill="#056178"/>
<path d="M64.5403 2.51392L66.0062 5.25993C66.1698 5.56459 66.3085 5.89411 66.4244 6.2485L64.9585 3.50248C64.8426 3.14809 64.7039 2.81857 64.5403 2.51392Z" fill="#067793"/>
<path d="M64.9585 3.5025L66.4244 6.24852C66.441 6.29619 66.4555 6.34593 66.47 6.39359C66.6563 7.0029 66.8095 7.62464 66.9317 8.26296C67.911 13.1871 68.7206 17.2471 69.3583 20.4387C69.996 23.6303 70.497 26.2084 70.8573 28.169C71.2196 30.1295 71.4681 31.5823 71.6027 32.5232L70.1368 29.7772C70.0001 28.8363 69.7517 27.3835 69.3914 25.423C69.0311 23.4624 68.5322 20.8843 67.8924 17.6927C67.2547 14.5011 66.4451 10.4411 65.4658 5.51694C65.3437 4.87862 65.1904 4.25481 65.0041 3.64758C64.9896 3.59991 64.9751 3.55017 64.9585 3.5025Z" fill="#067B98"/>
<path d="M66.5694 32.8341L68.0352 35.5801C66.6812 35.5801 65.6149 35.4205 64.8302 35.1014C64.0475 34.7822 63.4595 34.318 63.0682 33.7087C63.0019 33.6071 62.9419 33.5014 62.8819 33.3916L61.416 30.6456C61.4739 30.7554 61.5361 30.8611 61.6023 30.9627C61.9936 31.572 62.5816 32.0362 63.3643 32.3554C64.149 32.6724 65.2153 32.8341 66.5694 32.8341Z" fill="#056178"/>
<path d="M68.9752 32.834L70.4411 35.5801H68.0352L66.5694 32.834H68.9752Z" fill="#055D73"/>
<path d="M70.1388 29.7792L71.6047 32.5253C71.7414 33.4682 71.7973 34.1211 71.7766 34.4858C71.7724 34.5459 71.7683 34.6039 71.76 34.6578L70.2941 31.9118C70.3003 31.8579 70.3065 31.7999 70.3107 31.7398C70.3314 31.375 70.2734 30.7222 70.1388 29.7792Z" fill="#067B98"/>
<path d="M70.2941 31.9118L71.76 34.6578C71.7434 34.7822 71.7165 34.892 71.6813 34.9894L70.2154 32.2434C70.2527 32.146 70.2796 32.0362 70.2941 31.9118Z" fill="#067793"/>
<path d="M70.2175 32.2434L71.6834 34.9894C71.6648 35.0392 71.6441 35.0848 71.6213 35.1262L70.1554 32.3802C70.1782 32.3387 70.1989 32.2931 70.2175 32.2434Z" fill="#06738F"/>
<path d="M70.1533 32.3802L71.6192 35.1262C71.6006 35.1573 71.5819 35.1863 71.5612 35.2153L70.0953 32.4693C70.116 32.4403 70.1368 32.4113 70.1533 32.3802Z" fill="#05708A"/>
<path d="M70.0954 32.4672L71.5612 35.2132C71.5426 35.2381 71.524 35.2588 71.5033 35.2796L70.0374 32.5335C70.0581 32.5149 70.0767 32.4921 70.0954 32.4672Z" fill="#056C85"/>
<path d="M70.0374 32.5356L71.5033 35.2816C71.4826 35.3023 71.4598 35.323 71.437 35.3396L69.9711 32.5936C69.996 32.575 70.0167 32.5563 70.0374 32.5356Z" fill="#056881"/>
<path d="M69.9711 32.5936L71.437 35.3396C71.4308 35.3438 71.4267 35.3479 71.4205 35.3521C71.3915 35.3728 71.3583 35.3935 71.3231 35.4122L69.8573 32.6662C69.8925 32.6475 69.9235 32.6268 69.9546 32.6061C69.9608 32.6019 69.967 32.5978 69.9711 32.5936Z" fill="#05647C"/>
<path d="M69.8593 32.6641L71.3252 35.4101C71.114 35.5241 70.82 35.578 70.4411 35.578L68.9752 32.832C69.3541 32.8341 69.6481 32.7781 69.8593 32.6641Z" fill="#056178"/>
<path d="M98.3716 3.99988L99.8375 6.7459C99.8644 6.79563 99.8892 6.8433 99.9141 6.89304C100.028 7.12308 100.125 7.35935 100.204 7.60182L98.7381 4.85581C98.6573 4.61333 98.56 4.37707 98.4482 4.14702C98.4234 4.09936 98.3985 4.04962 98.3716 3.99988Z" fill="#067793"/>
<path d="M98.7401 4.85785L100.206 7.60387C100.434 8.29814 100.525 9.04838 100.479 9.86078C100.469 10.0452 100.452 10.2255 100.43 10.3996L98.9637 7.65361C98.9865 7.47952 99.0031 7.29921 99.0134 7.11476C99.059 6.30236 98.9679 5.55213 98.7401 4.85785Z" fill="#067B98"/>
<path d="M98.9637 7.65363L100.43 10.3996C100.37 10.8618 100.264 11.2887 100.117 11.6846L98.6511 8.93855C98.7981 8.54271 98.9037 8.11371 98.9637 7.65363Z" fill="#067793"/>
<path d="M98.6511 8.9386L100.117 11.6846C100.028 11.925 99.9203 12.153 99.7981 12.3685L98.3323 9.62251C98.4544 9.40698 98.56 9.179 98.6511 8.9386Z" fill="#06738F"/>
<path d="M98.3322 9.62457L99.7981 12.3706C99.6967 12.5509 99.5828 12.7208 99.4607 12.8846L97.9948 10.1385C98.119 9.97482 98.2308 9.8028 98.3322 9.62457Z" fill="#05708A"/>
<path d="M97.9948 10.1385L99.4607 12.8845C99.3406 13.042 99.2122 13.1912 99.0714 13.3322L97.6055 10.5861C97.7443 10.4431 97.8747 10.2939 97.9948 10.1385Z" fill="#056C85"/>
<path d="M97.6055 10.5862L99.0714 13.3322C98.9203 13.4856 98.7546 13.6286 98.5786 13.7653L97.1127 11.0193C97.2887 10.8825 97.4523 10.7395 97.6055 10.5862Z" fill="#056881"/>
<path d="M97.1128 11.0173L98.5786 13.7633C98.5393 13.7923 98.502 13.8213 98.4606 13.8503C98.2577 13.9975 98.0403 14.1322 97.8126 14.2545L96.3467 11.5084C96.5744 11.3862 96.7918 11.2515 96.9947 11.1043C97.0361 11.0753 97.0734 11.0463 97.1128 11.0173Z" fill="#05647C"/>
<path d="M96.3488 11.5084L97.8146 14.2544C96.6448 14.8824 95.1541 15.1953 93.3404 15.1953C92.6489 15.1953 92.2348 15.1415 92.0981 15.0358C92.0546 15.0005 92.0174 14.9549 91.9863 14.8969L90.5204 12.1509C90.5515 12.2089 90.5888 12.2545 90.6322 12.2897C90.7689 12.3954 91.183 12.4493 91.8745 12.4493C93.6862 12.4493 95.179 12.1364 96.3488 11.5084Z" fill="#056178"/>
<path d="M90.038 7.96866L91.5039 10.7147C91.3838 10.4888 91.2244 10.296 91.0298 10.1323C90.6985 9.85875 90.156 9.72197 89.4024 9.72197C88.3071 9.72197 87.3568 9.93751 86.5534 10.3686L85.0875 7.62256C85.8888 7.19149 86.8391 6.97595 87.9365 6.97595C88.6901 6.97595 89.2326 7.11273 89.5639 7.3863C89.7585 7.55003 89.9158 7.74484 90.038 7.96866Z" fill="#056178"/>
<path d="M85.0875 7.62256L86.5534 10.3686C86.3298 10.4888 86.1166 10.6256 85.9137 10.781L84.4478 8.03498C84.6486 7.88162 84.8619 7.74483 85.0875 7.62256Z" fill="#05647C"/>
<path d="M84.4478 8.03497L85.9136 10.781C85.8225 10.8494 85.7356 10.9219 85.6486 10.9986C85.5058 11.125 85.367 11.2577 85.2325 11.3924L83.7666 8.64635C83.9012 8.51164 84.0399 8.379 84.1827 8.25258C84.2697 8.17797 84.3567 8.10544 84.4478 8.03497Z" fill="#056881"/>
<path d="M83.7666 8.64636L85.2325 11.3924C84.9633 11.6639 84.7149 11.9499 84.483 12.2545L83.0171 9.50851C83.249 9.20593 83.4974 8.91786 83.7666 8.64636Z" fill="#056C85"/>
<path d="M83.0171 9.50848L84.483 12.2545C84.2387 12.5757 84.0151 12.9156 83.8121 13.2742L82.3463 10.5281C82.5492 10.1717 82.7728 9.82972 83.0171 9.50848Z" fill="#05708A"/>
<path d="M82.3463 10.5302L83.8121 13.2762C83.6631 13.5415 83.5244 13.8151 83.3981 14.1011C83.2738 14.3809 83.1579 14.6627 83.0523 14.9487L81.5864 12.2027C81.692 11.9188 81.8079 11.6369 81.9322 11.3551C82.0585 11.0691 82.1972 10.7934 82.3463 10.5302Z" fill="#06738F"/>
<path d="M81.5864 12.2006L83.0523 14.9466C82.6962 15.8958 82.4415 16.8678 82.2903 17.8626C82.2324 18.246 82.1785 18.6108 82.133 18.9569L80.6671 16.2108C80.7126 15.8647 80.7644 15.5 80.8245 15.1166C80.9756 14.1218 81.2303 13.1498 81.5864 12.2006Z" fill="#067793"/>
<path d="M80.6671 16.2109L82.133 18.9569C82.0253 19.7817 81.9529 20.503 81.9177 21.1226C81.8349 22.5837 81.8618 23.8065 81.9922 24.793C82.073 25.3981 82.191 25.9349 82.3463 26.4033L80.8804 23.6572C80.7272 23.1889 80.6091 22.6521 80.5263 22.0469C80.3938 21.0604 80.369 19.8356 80.4518 18.3766C80.487 17.7569 80.5574 17.0357 80.6671 16.2109Z" fill="#067B98"/>
<path d="M80.8804 23.6572L82.3463 26.4032C82.4436 26.6996 82.5554 26.969 82.6837 27.2115C82.69 27.226 82.6982 27.2385 82.7045 27.2509L81.2386 24.5049C81.2323 24.4924 81.2241 24.4779 81.2179 24.4655C81.0895 24.2251 80.9777 23.9557 80.8804 23.6572Z" fill="#067793"/>
<path d="M87.7543 29.4124L89.2202 32.1584C89.1394 32.3657 89.0442 32.5667 88.9324 32.7636L87.4665 30.0176C87.5783 29.8207 87.6735 29.6197 87.7543 29.4124Z" fill="#06738F"/>
<path d="M87.4665 30.0176L88.9324 32.7636C88.8206 32.9605 88.6943 33.1532 88.5514 33.3418L87.0855 30.5958C87.2284 30.4072 87.3547 30.2145 87.4665 30.0176Z" fill="#05708A"/>
<path d="M87.0855 30.5958L88.5514 33.3418C88.4023 33.5387 88.2346 33.7294 88.0524 33.9138L86.5866 31.1678C86.7688 30.9834 86.9365 30.7927 87.0855 30.5958Z" fill="#056C85"/>
<path d="M86.5865 31.1678L88.0524 33.9138C87.833 34.1335 87.5907 34.347 87.3236 34.5501L85.8577 31.804C86.1248 31.6009 86.3671 31.3895 86.5865 31.1678Z" fill="#056881"/>
<path d="M85.8578 31.8061L87.3236 34.5521C87.1808 34.6619 87.0296 34.7697 86.8743 34.8733C86.7356 34.9645 86.5928 35.0516 86.4416 35.1324L84.9757 32.3864C85.1269 32.3056 85.2718 32.2185 85.4085 32.1273C85.5637 32.0216 85.7149 31.9159 85.8578 31.8061Z" fill="#05647C"/>
<path d="M84.9737 32.3864L86.4395 35.1324C85.3194 35.7334 83.8287 36.036 81.9736 36.036C80.7479 36.036 79.5656 35.7998 78.429 35.3293C77.2923 34.8589 76.2985 34.0755 75.4475 32.9812C75.1618 32.6123 74.8988 32.204 74.6587 31.7543L73.1928 29.0083C73.4329 29.458 73.6959 29.8684 73.9816 30.2352C74.8305 31.3295 75.8264 32.1129 76.9631 32.5833C78.0998 33.0558 79.282 33.29 80.5077 33.29C82.3649 33.29 83.8535 32.9874 84.9737 32.3864Z" fill="#056178"/>
<path d="M92.2327 32.834L93.6986 35.5801C92.0608 35.5801 90.9097 35.2547 90.2388 34.5998C89.98 34.3469 89.7688 34.0692 89.6094 33.7687L88.1435 31.0227C88.3029 31.3232 88.5141 31.6009 88.7729 31.8538C89.4438 32.5066 90.597 32.834 92.2327 32.834Z" fill="#056178"/>
<path d="M96.6158 18.4739L98.0817 21.22C98.1542 21.3547 98.2163 21.5018 98.2681 21.6614L96.8022 18.9154C96.7484 18.7558 96.6862 18.6086 96.6158 18.4739Z" fill="#067793"/>
<path d="M96.8022 18.9154L98.2681 21.6614C98.353 21.9205 98.413 22.2127 98.4441 22.5381C98.502 23.1474 98.5082 23.8914 98.4586 24.7722C98.4234 25.3815 98.355 26.1877 98.2515 27.1887C98.1501 28.1938 98.0279 29.2114 97.8912 30.2435C97.8912 30.2497 97.8892 30.2559 97.8892 30.2622L96.4233 27.5161C96.4233 27.5099 96.4254 27.5037 96.4254 27.4975C96.5599 26.4654 96.6821 25.4457 96.7856 24.4427C96.8891 23.4396 96.9575 22.6334 96.9927 22.0262C97.0424 21.1454 97.0362 20.4014 96.9782 19.7921C96.9471 19.4667 96.8871 19.1745 96.8022 18.9154Z" fill="#067B98"/>
<path d="M96.4233 27.5161L97.8892 30.2621C97.7504 31.2901 97.6138 32.233 97.4709 33.0952C97.3281 33.9615 97.2142 34.5625 97.1335 34.8962L95.6676 32.1501C95.7504 31.8144 95.8622 31.2155 96.0051 30.3492C96.1479 29.487 96.2866 28.5441 96.4233 27.5161Z" fill="#067793"/>
<path d="M94.827 32.834L96.2929 35.5801H93.6986L92.2327 32.834H94.827Z" fill="#055D73"/>
<path d="M95.6676 32.1502L97.1335 34.8962C97.1128 34.9688 97.09 35.0351 97.0693 35.0952L95.6034 32.3492C95.6262 32.2891 95.6469 32.2227 95.6676 32.1502Z" fill="#067793"/>
<path d="M95.6034 32.3491L97.0693 35.0951C97.0403 35.1718 97.0092 35.2381 96.9782 35.2941L95.5123 32.5481C95.5434 32.4921 95.5744 32.4258 95.6034 32.3491Z" fill="#06738F"/>
<path d="M95.5123 32.5482L96.9782 35.2942C96.9595 35.3253 96.9409 35.3543 96.9223 35.3791L95.4564 32.6331C95.475 32.6103 95.4937 32.5813 95.5123 32.5482Z" fill="#05708A"/>
<path d="M95.4564 32.6351L96.9223 35.3812C96.9078 35.3998 96.8954 35.4164 96.8809 35.4309L95.415 32.6849C95.4295 32.6683 95.444 32.6517 95.4564 32.6351Z" fill="#056C85"/>
<path d="M95.415 32.6829L96.8809 35.4289C96.8767 35.433 96.8726 35.4372 96.8664 35.4413C96.8602 35.4475 96.8539 35.4537 96.8457 35.4579L95.3798 32.7119C95.3881 32.7057 95.3943 32.7015 95.4005 32.6953C95.4046 32.6912 95.4108 32.687 95.415 32.6829Z" fill="#056881"/>
<path d="M95.3798 32.7139L96.8457 35.4599C96.8312 35.4703 96.8146 35.4827 96.796 35.491L95.3301 32.745C95.3487 32.7347 95.3653 32.7243 95.3798 32.7139Z" fill="#05647C"/>
<path d="M95.3301 32.745L96.796 35.491C96.6863 35.549 96.5186 35.578 96.2929 35.578L94.827 32.8341C95.0527 32.8341 95.2225 32.803 95.3301 32.745Z" fill="#056178"/>
<path d="M114.625 7.16034L116.091 9.90636L111.968 21.9453L110.502 19.1993L114.625 7.16034Z" fill="#067C99"/>
<path d="M102.893 32.8341L104.359 35.5801C103.856 35.5801 103.339 35.5283 102.813 35.4206C102.283 35.3149 101.813 35.1408 101.403 34.8962C100.991 34.6537 100.655 34.3408 100.392 33.9615C100.351 33.9035 100.314 33.8413 100.281 33.7792L98.8147 31.0331C98.8478 31.0953 98.8851 31.1575 98.9265 31.2155C99.1874 31.5969 99.5248 31.9077 99.9369 32.1502C100.347 32.3927 100.817 32.5688 101.347 32.6745C101.875 32.7823 102.39 32.8341 102.893 32.8341Z" fill="#056178"/>
<path d="M116.641 25.8105L118.107 28.5565H109.898L108.432 25.8105H116.641Z" fill="#055D73"/>
<path d="M108.432 25.8105L109.898 28.5565L107.987 34.8506L106.521 32.1046L108.432 25.8105Z" fill="#067C9A"/>
<path d="M105.395 32.834L106.86 35.5801H104.361L102.893 32.834H105.395Z" fill="#055D73"/>
<path d="M106.521 32.1046L107.987 34.8506C107.962 34.9169 107.933 34.9791 107.9 35.0371L106.434 32.2911C106.467 32.233 106.496 32.1709 106.521 32.1046Z" fill="#06738F"/>
<path d="M106.434 32.2911L107.9 35.0371C107.873 35.0827 107.846 35.1262 107.815 35.1656L106.349 32.4196C106.38 32.3802 106.409 32.3367 106.434 32.2911Z" fill="#05708A"/>
<path d="M106.349 32.4196L107.815 35.1656C107.788 35.2008 107.759 35.234 107.728 35.2651L106.262 32.519C106.293 32.4879 106.322 32.4548 106.349 32.4196Z" fill="#056C85"/>
<path d="M106.262 32.519L107.728 35.2651C107.697 35.2961 107.664 35.3252 107.629 35.3521L106.163 32.6061C106.198 32.5812 106.231 32.5522 106.262 32.519Z" fill="#056881"/>
<path d="M106.163 32.6082L107.629 35.3542C107.587 35.3853 107.544 35.4143 107.496 35.4391L106.03 32.6931C106.078 32.6683 106.121 32.6392 106.163 32.6082Z" fill="#05647C"/>
<path d="M106.03 32.6931L107.496 35.4391C107.32 35.5324 107.109 35.5801 106.86 35.5801L105.395 32.834C105.643 32.834 105.856 32.7864 106.03 32.6931Z" fill="#056178"/>
<path d="M120.681 2.51807L122.147 5.26408C122.31 5.56874 122.449 5.89619 122.565 6.25058L121.099 3.50456C120.983 3.15224 120.844 2.82272 120.681 2.51807Z" fill="#067793"/>
<path d="M121.099 3.50458L122.565 6.2506C122.581 6.29826 122.596 6.34593 122.61 6.3936C122.795 7.0029 122.948 7.62464 123.072 8.26296C124.051 13.1871 124.861 17.2471 125.499 20.4387C126.136 23.6303 126.635 26.2084 126.998 28.169C127.36 30.1295 127.606 31.5823 127.743 32.5232L126.277 29.7772C126.141 28.8363 125.894 27.3835 125.532 25.423C125.17 23.4624 124.671 20.8843 124.033 17.6927C123.395 14.5011 122.586 10.4411 121.606 5.51694C121.484 4.87862 121.329 4.25481 121.145 3.64758C121.13 3.59991 121.116 3.55224 121.099 3.50458Z" fill="#067B98"/>
<path d="M122.708 32.8341L124.174 35.5801C122.822 35.5801 121.753 35.4205 120.969 35.1014C120.184 34.7822 119.598 34.318 119.207 33.7087C119.14 33.605 119.076 33.4973 119.018 33.3854L117.552 30.6393C117.612 30.7513 117.674 30.859 117.741 30.9626C118.132 31.572 118.718 32.0362 119.503 32.3553C120.287 32.6724 121.356 32.8341 122.708 32.8341Z" fill="#056178"/>
<path d="M125.114 32.834L126.58 35.5801H124.174L122.708 32.834H125.114Z" fill="#055D73"/>
<path d="M126.275 29.7792L127.741 32.5253C127.878 33.4682 127.934 34.1211 127.913 34.4858C127.909 34.5459 127.905 34.6039 127.896 34.6578L126.43 31.9118C126.437 31.8579 126.443 31.7999 126.447 31.7398C126.47 31.375 126.412 30.7222 126.275 29.7792Z" fill="#067B98"/>
<path d="M126.432 31.9118L127.898 34.6578C127.882 34.7822 127.855 34.892 127.82 34.9894L126.354 32.2434C126.391 32.146 126.416 32.0362 126.432 31.9118Z" fill="#067793"/>
<path d="M126.354 32.2434L127.82 34.9894C127.801 35.0392 127.78 35.0848 127.758 35.1262L126.292 32.3802C126.314 32.3387 126.335 32.2931 126.354 32.2434Z" fill="#06738F"/>
<path d="M126.292 32.3802L127.758 35.1262C127.739 35.1573 127.72 35.1863 127.7 35.2153L126.234 32.4693C126.254 32.4403 126.273 32.4113 126.292 32.3802Z" fill="#05708A"/>
<path d="M126.234 32.4672L127.7 35.2132C127.681 35.2381 127.662 35.2588 127.642 35.2796L126.176 32.5335C126.196 32.5149 126.215 32.4921 126.234 32.4672Z" fill="#056C85"/>
<path d="M126.176 32.5356L127.642 35.2816C127.621 35.3023 127.598 35.323 127.575 35.3396L126.11 32.5936C126.132 32.575 126.155 32.5563 126.176 32.5356Z" fill="#056881"/>
<path d="M126.11 32.5936L127.575 35.3396C127.569 35.3438 127.565 35.3479 127.559 35.3521C127.53 35.3728 127.497 35.3935 127.462 35.4122L125.996 32.6662C126.031 32.6475 126.062 32.6268 126.093 32.6061C126.099 32.6019 126.103 32.5978 126.11 32.5936Z" fill="#05647C"/>
<path d="M125.996 32.6641L127.462 35.4101C127.25 35.5241 126.956 35.578 126.579 35.578L125.114 32.832C125.49 32.8341 125.787 32.7781 125.996 32.6641Z" fill="#056178"/>
<path d="M144.301 8.22145L145.766 10.9675C145.603 10.6607 145.377 10.3892 145.089 10.1571C144.698 9.83797 144.143 9.67839 143.419 9.67839C142.634 9.67839 141.905 9.85869 141.234 10.2193L139.768 7.47329C140.439 7.11268 141.166 6.93237 141.953 6.93237C142.677 6.93237 143.232 7.09195 143.624 7.41111C143.909 7.64323 144.135 7.91472 144.301 8.22145Z" fill="#056178"/>
<path d="M139.768 7.47119L141.234 10.2172C141.046 10.3188 140.859 10.4348 140.679 10.5654C140.648 10.5882 140.619 10.6089 140.59 10.6317L139.124 7.88568C139.153 7.86289 139.184 7.84009 139.213 7.81937C139.394 7.6888 139.58 7.57274 139.768 7.47119Z" fill="#05647C"/>
<path d="M139.124 7.88568L140.59 10.6317C140.454 10.7353 140.329 10.8452 140.216 10.9591L138.75 8.21313C138.864 8.09915 138.988 7.99138 139.124 7.88568Z" fill="#056881"/>
<path d="M138.75 8.21313L140.216 10.9592C140.118 11.0586 140.027 11.1602 139.946 11.268L138.48 8.52193C138.563 8.41624 138.652 8.31261 138.75 8.21313Z" fill="#056C85"/>
<path d="M138.481 8.52197L139.946 11.268C139.868 11.3716 139.795 11.4815 139.733 11.5934L138.267 8.84735C138.331 8.73544 138.402 8.62767 138.481 8.52197Z" fill="#05708A"/>
<path d="M138.267 8.84735L139.733 11.5934C139.663 11.7198 139.601 11.8504 139.551 11.9851L138.085 9.23905C138.135 9.10434 138.197 8.97377 138.267 8.84735Z" fill="#06738F"/>
<path d="M138.085 9.23901L139.551 11.985C139.474 12.1902 139.423 12.4037 139.392 12.6296L137.926 9.88355C137.955 9.65972 138.008 9.44419 138.085 9.23901Z" fill="#067793"/>
<path d="M137.926 9.88354L139.391 12.6296C139.381 12.7083 139.373 12.7871 139.369 12.8679C139.35 13.2078 139.387 13.5228 139.48 13.8088L138.015 11.0628C137.919 10.7747 137.882 10.4618 137.903 10.1219C137.909 10.0431 137.915 9.9623 137.926 9.88354Z" fill="#067B98"/>
<path d="M138.017 11.0649L139.483 13.8109C139.522 13.9311 139.572 14.0472 139.632 14.1591L138.166 11.4131C138.106 11.3011 138.056 11.1851 138.017 11.0649Z" fill="#067793"/>
<path d="M151.301 3.40918L152.767 6.1552C152.914 6.43291 153.038 6.72305 153.137 7.02356L151.671 4.27754C151.572 3.97703 151.448 3.68689 151.301 3.40918Z" fill="#067793"/>
<path d="M151.671 4.27753L153.137 7.02354C153.384 7.76963 153.481 8.59447 153.429 9.49392C153.417 9.70117 153.398 9.90427 153.373 10.1012L151.907 7.35514C151.932 7.15825 151.951 6.95723 151.963 6.74791C152.015 5.84846 151.918 5.02569 151.671 4.27753Z" fill="#067B98"/>
<path d="M151.907 7.35516L153.373 10.1012C153.307 10.6089 153.193 11.0773 153.034 11.5042L151.568 8.75822C151.729 8.33129 151.841 7.86292 151.907 7.35516Z" fill="#067793"/>
<path d="M151.568 8.75824L153.034 11.5043C152.941 11.755 152.831 11.9913 152.704 12.213L151.239 9.46702C151.365 9.24527 151.475 9.00901 151.568 8.75824Z" fill="#06738F"/>
<path d="M151.239 9.46906L152.704 12.2151C152.601 12.3975 152.487 12.5695 152.363 12.7332L150.897 9.98717C151.023 9.82345 151.137 9.65143 151.239 9.46906Z" fill="#05708A"/>
<path d="M150.899 9.98718L152.365 12.7332C152.247 12.8866 152.121 13.0337 151.984 13.1705L150.518 10.4245C150.655 10.2877 150.781 10.1426 150.899 9.98718Z" fill="#056C85"/>
<path d="M150.518 10.4266L151.984 13.1726C151.907 13.2493 151.829 13.3239 151.748 13.3943C151.671 13.4607 151.595 13.5249 151.514 13.585L150.046 10.839C150.127 10.7768 150.203 10.7146 150.28 10.6483C150.363 10.5758 150.441 10.5033 150.518 10.4266Z" fill="#056881"/>
<path d="M150.046 10.839L151.512 13.585C151.309 13.7404 151.092 13.8793 150.862 14.0036L149.396 11.2576C149.626 11.1354 149.843 10.9944 150.046 10.839Z" fill="#05647C"/>
<path d="M149.396 11.2596L150.862 14.0057C149.951 14.4948 148.82 14.7393 147.475 14.7393C146.907 14.7393 146.549 14.6854 146.398 14.5797C146.348 14.5445 146.309 14.4989 146.278 14.4409L144.812 11.6949C144.843 11.7529 144.884 11.8006 144.932 11.8337C145.083 11.9394 145.441 11.9933 146.009 11.9933C147.354 11.9933 148.485 11.7487 149.396 11.2596Z" fill="#056178"/>
<path d="M141.474 22.6852L142.94 25.4312C142.808 25.1846 142.621 24.9628 142.379 24.7701C141.808 24.3162 141.077 23.8976 140.184 23.5162C139.294 23.1349 138.333 22.7411 137.304 22.3308C136.273 21.9204 135.323 21.3588 134.451 20.6438C133.685 20.0158 133.048 19.2304 132.544 18.2832L131.079 15.5372C131.584 16.4823 132.219 17.2677 132.988 17.8978C133.859 18.6128 134.81 19.1744 135.841 19.5848C136.87 19.9951 137.832 20.3889 138.721 20.7702C139.613 21.1515 140.342 21.5681 140.915 22.024C141.153 22.2189 141.342 22.4385 141.474 22.6852Z" fill="#056178"/>
<path d="M149.535 19.4294L151.001 22.1754C151.013 22.1982 151.023 22.2189 151.036 22.2417C151.181 22.5174 151.305 22.8116 151.408 23.1246L149.943 20.3786C149.839 20.0656 149.715 19.7713 149.57 19.4957C149.557 19.4729 149.547 19.4501 149.535 19.4294Z" fill="#067793"/>
<path d="M149.94 20.3786L151.406 23.1246C151.717 24.0697 151.837 25.1805 151.765 26.4592C151.748 26.7452 151.721 27.0291 151.686 27.3069L150.22 24.5608C150.257 24.2831 150.282 23.9992 150.299 23.7132C150.371 22.4345 150.253 21.3236 149.94 20.3786Z" fill="#067B98"/>
<path d="M150.22 24.5608L151.686 27.3068C151.58 28.1151 151.388 28.8902 151.11 29.6342L149.644 26.8882C149.922 26.1442 150.114 25.3691 150.22 24.5608Z" fill="#067793"/>
<path d="M149.644 26.8861L151.11 29.6321C151.036 29.8311 150.955 30.0259 150.87 30.2207C150.748 30.4963 150.613 30.7616 150.466 31.0207L149 28.2747C149.145 28.0156 149.28 27.7503 149.404 27.4747C149.489 27.282 149.57 27.0851 149.644 26.8861Z" fill="#06738F"/>
<path d="M149 28.2747L150.466 31.0207C150.263 31.3813 150.036 31.7253 149.787 32.0548L148.321 29.3088C148.57 28.9793 148.796 28.6353 149 28.2747Z" fill="#05708A"/>
<path d="M148.319 29.3088L149.785 32.0549C149.543 32.3719 149.282 32.6745 148.996 32.9605L147.53 30.2145C147.816 29.9264 148.079 29.6259 148.319 29.3088Z" fill="#056C85"/>
<path d="M147.533 30.2145L148.998 32.9605C148.891 33.0683 148.781 33.174 148.669 33.2776C148.483 33.4475 148.288 33.6113 148.085 33.7667L146.619 31.0207C146.822 30.8652 147.017 30.7015 147.203 30.5316C147.315 30.4279 147.425 30.3222 147.533 30.2145Z" fill="#056881"/>
<path d="M146.617 31.0207L148.083 33.7667C147.69 34.0672 147.263 34.3408 146.806 34.5874L145.34 31.8414C145.8 31.5968 146.224 31.3212 146.617 31.0207Z" fill="#05647C"/>
<path d="M145.34 31.8414L146.806 34.5874C146.296 34.861 145.748 35.1014 145.158 35.3065C143.762 35.7915 142.153 36.036 140.329 36.036C138.756 36.036 137.311 35.8682 135.994 35.5345C134.677 35.2008 133.536 34.7822 132.573 34.2807C131.613 33.7791 130.863 33.232 130.331 32.6393C130.101 32.3844 129.923 32.1377 129.799 31.9035L128.333 29.1575C128.459 29.3938 128.635 29.6383 128.865 29.8933C129.397 30.486 130.145 31.0331 131.108 31.5347C132.07 32.0362 133.211 32.4548 134.528 32.7885C135.845 33.1242 137.29 33.29 138.864 33.29C140.688 33.29 142.296 33.0476 143.692 32.5605C144.282 32.3553 144.831 32.1149 145.34 31.8414Z" fill="#056178"/>
<path d="M23.9138 0.364746C25.1706 0.364746 26.1954 0.487022 26.9822 0.727428C27.7711 0.971979 28.3963 1.31394 28.858 1.75537C29.3218 2.19681 29.6531 2.71285 29.856 3.30558C30.0568 3.8983 30.1852 4.54491 30.2411 5.24333C30.3074 5.76145 30.3653 6.37697 30.4212 7.0899C30.4751 7.8049 30.5786 8.89087 30.7339 10.3499C30.8871 11.8089 31.0983 13.7777 31.3674 16.2564C31.6366 18.7351 32.0031 21.9951 32.4689 26.0385C33.2474 23.9121 33.9203 22.0427 34.4835 20.4283C35.0446 18.818 35.6098 17.16 36.1792 15.4585C36.7465 13.757 37.3573 11.84 38.0115 9.71157C38.6658 7.58522 39.4898 4.93868 40.4878 1.77817C40.6783 1.19995 40.8791 0.828978 41.0945 0.659036C41.3077 0.493239 41.7756 0.41034 42.5003 0.41034C42.8129 0.41034 43.3078 0.433137 43.9827 0.478732C44.6577 0.524326 45.3327 0.659036 46.0118 0.887008C46.6888 1.11498 47.2851 1.45072 47.7945 1.89215C48.3038 2.33359 48.5357 2.96362 48.4881 3.78431C48.4467 4.51382 48.1734 5.63088 47.664 7.13549C47.1547 8.6401 46.5149 10.3499 45.7468 12.2648C44.9786 14.1798 44.1339 16.1797 43.2146 18.2605C42.2953 20.3454 41.3885 22.3142 40.4982 24.167C39.6058 26.0219 38.8004 27.6488 38.0757 29.0456C37.3531 30.4445 36.819 31.4165 36.4732 31.9657C36.0943 32.5439 35.4649 32.832 34.5849 32.832H29.6324C28.8456 32.832 28.2017 32.689 27.6986 32.4009C27.1955 32.1129 26.7855 31.7232 26.4667 31.2362C26.1478 30.7512 25.8952 30.1958 25.7109 29.572C25.5267 28.9503 25.3714 28.3182 25.2513 27.6798C24.4252 23.3629 23.7171 19.6159 23.1249 16.4388C22.5328 13.2617 22.0462 10.6007 21.6632 8.45773C21.2802 6.3148 20.9965 4.66719 20.8102 3.51075C20.6218 2.35639 20.5369 1.64139 20.5534 1.36782C20.5721 1.03208 20.8371 0.783384 21.3506 0.615514C21.864 0.449717 22.7171 0.364746 23.9138 0.364746Z" fill="#08A1C8"/>
<path d="M70.1388 29.7793C70.2755 30.7222 70.3314 31.375 70.3107 31.7398C70.2858 32.1667 70.1678 32.4548 69.9546 32.6061C69.7413 32.7595 69.4142 32.8341 68.9732 32.8341H66.5673C65.2132 32.8341 64.1469 32.6745 63.3622 32.3553C62.5796 32.0362 61.9916 31.5719 61.6003 30.9626C61.211 30.3554 60.946 29.6176 60.8052 28.7513C60.6644 27.885 60.563 26.9047 60.4988 25.8084H52.2915L50.3805 32.1025C50.1941 32.5895 49.8194 32.832 49.2541 32.832H46.7551C46.252 32.832 45.7343 32.7802 45.2064 32.6724C44.6763 32.5667 44.2084 32.3926 43.7964 32.1481C43.3844 31.9056 43.051 31.5927 42.7881 31.2134C42.5251 30.8341 42.4113 30.3699 42.4423 29.8228C42.4796 29.1554 42.7612 28.0591 43.2891 26.54C43.813 25.0209 44.4693 23.2945 45.2561 21.365C46.0408 19.4335 46.9104 17.4128 47.8607 15.2989C48.8131 13.1871 49.7365 11.1872 50.6289 9.30329C51.5213 7.41735 52.3308 5.76145 53.0555 4.33145C53.7801 2.90352 54.333 1.90044 54.7098 1.32223C54.9851 0.895298 55.2274 0.646602 55.4365 0.569921C55.6456 0.495312 56.0307 0.458008 56.598 0.458008H61.0806C61.8653 0.458008 62.5113 0.60308 63.0144 0.889081C63.5154 1.17715 63.9275 1.55849 64.2463 2.03101C64.5652 2.50353 64.8177 3.0403 65.0041 3.64961C65.1904 4.25891 65.3436 4.88065 65.4658 5.51897C66.4451 10.4431 67.2547 14.5031 67.8924 17.6947C68.5301 20.8863 69.0311 23.4644 69.3914 25.425C69.7537 27.3835 70.0022 28.8363 70.1388 29.7793ZM54.364 19.1993H59.7886L58.4863 7.16036L54.364 19.1993Z" fill="url(#paint0_linear)"/>
<path d="M89.0338 0C90.6384 0 92.0691 0.16787 93.3217 0.501537C94.5764 0.837276 95.6365 1.30565 96.4978 1.91496C97.3612 2.52426 98.0093 3.26828 98.4482 4.14908C98.8871 5.03195 99.0755 6.01844 99.0134 7.11478C98.914 8.87844 98.2411 10.2069 96.9968 11.1063C95.7504 12.0016 94.0423 12.4514 91.8745 12.4514C91.183 12.4514 90.7689 12.3975 90.6322 12.2918C90.4956 12.1861 90.4231 11.9643 90.4107 11.6307C90.3776 11.0835 90.3693 10.5364 90.3858 9.98929C90.4003 9.44215 90.3506 8.94062 90.2368 8.48467C90.1208 8.02873 89.8972 7.66398 89.5659 7.39041C89.2347 7.11685 88.6922 6.98007 87.9386 6.98007C86.3981 6.98007 85.1455 7.40699 84.1869 8.2567C83.2262 9.10849 82.4767 10.1426 81.9363 11.3571C81.3959 12.5737 81.0253 13.8275 80.8265 15.1186C80.6278 16.4119 80.5056 17.4978 80.4559 18.3786C80.3731 19.8397 80.4 21.0625 80.5305 22.049C80.663 23.0375 80.8928 23.8437 81.2199 24.4655C81.545 25.0893 81.9529 25.5307 82.4415 25.7877C82.9301 26.0468 83.5057 26.1752 84.1641 26.1752C85.3608 26.1752 86.3795 25.9328 87.2263 25.4457C88.0711 24.9587 88.6073 24.0758 88.8371 22.7992L89.2636 20.2438C89.4086 19.363 89.5721 18.6418 89.7626 18.0781C89.951 17.5144 90.3444 17.2346 90.9428 17.2346H93.5371C94.3238 17.2346 94.9553 17.3175 95.4336 17.4854C95.9119 17.6533 96.2742 17.9268 96.5206 18.3061C96.7649 18.6874 96.9202 19.1786 96.9802 19.7879C97.0382 20.3972 97.0444 21.1412 96.9947 22.022C96.9595 22.6313 96.8912 23.4375 96.7877 24.4385C96.6862 25.4437 96.5641 26.4612 96.4274 27.4933C96.2887 28.5275 96.15 29.4767 96.0071 30.345C95.8643 31.2113 95.7504 31.8124 95.6696 32.146C95.591 32.4196 95.5019 32.5999 95.4025 32.6931C95.3032 32.7843 95.1106 32.8299 94.829 32.8299H92.2348C90.597 32.8299 89.4458 32.5046 88.775 31.8497C88.1042 31.1948 87.7646 30.3824 87.7564 29.4104C87.3526 30.4445 86.57 31.3481 85.4085 32.1253C84.249 32.9004 82.6154 33.2879 80.5077 33.2879C79.282 33.2879 78.0997 33.0517 76.9631 32.5812C75.8264 32.1108 74.8326 31.3274 73.9816 30.2331C73.1306 29.1368 72.4805 27.6778 72.0354 25.854C71.5882 24.0302 71.4391 21.765 71.5923 19.0605C71.6503 18.0284 71.7807 16.8326 71.9836 15.4813C72.1865 14.128 72.524 12.7457 72.9961 11.3302C73.4681 9.91675 74.112 8.53441 74.9278 7.18109C75.7415 5.82777 76.7871 4.6216 78.0563 3.55635C79.3275 2.49318 80.8617 1.6331 82.661 0.978204C84.456 0.32745 86.5824 0 89.0338 0Z" fill="url(#paint1_linear)"/>
<path d="M126.275 29.7793C126.412 30.7222 126.468 31.375 126.447 31.7398C126.422 32.1667 126.304 32.4548 126.091 32.6061C125.878 32.7595 125.55 32.8341 125.112 32.8341H122.706C121.354 32.8341 120.285 32.6745 119.501 32.3553C118.716 32.0362 118.13 31.5719 117.739 30.9626C117.347 30.3554 117.082 29.6176 116.944 28.7513C116.805 27.885 116.701 26.9047 116.639 25.8084H108.43L106.519 32.1025C106.335 32.5895 105.958 32.832 105.393 32.832H102.891C102.388 32.832 101.871 32.7802 101.345 32.6724C100.815 32.5667 100.345 32.3926 99.9348 32.1481C99.5228 31.9056 99.1874 31.5927 98.9244 31.2134C98.6615 30.8341 98.5476 30.3699 98.5786 29.8228C98.6159 29.1554 98.8975 28.0591 99.4255 26.54C99.9514 25.0209 100.606 23.2945 101.392 21.365C102.177 19.4335 103.047 17.4128 103.999 15.2989C104.952 13.1871 105.875 11.1872 106.767 9.30329C107.66 7.41735 108.469 5.76145 109.192 4.33145C109.919 2.90352 110.469 1.90044 110.848 1.32223C111.121 0.895298 111.364 0.646602 111.573 0.569921C111.782 0.495312 112.169 0.458008 112.736 0.458008H117.217C118.002 0.458008 118.648 0.60308 119.151 0.889081C119.654 1.17715 120.064 1.55849 120.383 2.03101C120.701 2.50353 120.956 3.0403 121.14 3.64961C121.325 4.25891 121.478 4.88065 121.602 5.51897C122.581 10.4431 123.391 14.5031 124.029 17.6947C124.666 20.8863 125.165 23.4644 125.528 25.425C125.894 27.3835 126.141 28.8363 126.275 29.7793ZM110.502 19.1993H115.927L114.625 7.16036L110.502 19.1993Z" fill="url(#paint2_linear)"/>
<path d="M143.615 0C146.572 0 148.729 0.623812 150.092 1.86936C151.452 3.11492 152.077 4.7418 151.963 6.74795C151.868 8.44944 151.307 9.75095 150.28 10.6463C149.255 11.5416 147.829 11.9913 146.007 11.9913C145.439 11.9913 145.081 11.9374 144.93 11.8317C144.779 11.726 144.713 11.5063 144.731 11.1706C144.748 10.8659 144.748 10.4701 144.727 9.98307C144.708 9.49811 144.617 9.02559 144.454 8.56965C144.29 8.1137 144.013 7.72615 143.621 7.40699C143.23 7.08783 142.675 6.92825 141.951 6.92825C140.944 6.92825 140.031 7.22462 139.211 7.81734C138.391 8.41007 137.955 9.17895 137.901 10.1199C137.855 10.9405 138.139 11.61 138.756 12.126C139.371 12.6441 140.153 13.1229 141.104 13.5622C142.054 14.0037 143.089 14.4513 144.214 14.9072C145.336 15.3632 146.363 15.9642 147.296 16.7082C148.228 17.4543 148.986 18.3828 149.568 19.4915C150.15 20.6024 150.394 22.0075 150.299 23.709C150.224 25.0478 149.924 26.3017 149.402 27.4705C148.88 28.6415 148.147 29.6591 147.201 30.5274C146.257 31.3937 145.087 32.0693 143.69 32.5564C142.294 33.0413 140.686 33.2859 138.861 33.2859C137.288 33.2859 135.843 33.118 134.526 32.7843C133.209 32.4507 132.068 32.032 131.106 31.5305C130.145 31.029 129.395 30.4818 128.863 29.8891C128.329 29.2964 128.076 28.7575 128.105 28.2705C128.219 26.2644 128.418 24.8199 128.704 23.937C128.99 23.0562 129.445 22.6147 130.074 22.6147C130.515 22.6147 130.967 22.7971 131.435 23.1619C131.903 23.5246 132.437 23.937 133.039 24.3929C133.644 24.8489 134.35 25.2592 135.164 25.624C135.975 25.9887 136.934 26.1711 138.035 26.1711C138.474 26.1711 138.909 26.1338 139.338 26.0571C139.766 25.9804 140.151 25.8519 140.491 25.6696C140.83 25.4872 141.112 25.2447 141.336 24.9401C141.557 24.6354 141.679 24.2706 141.704 23.8437C141.748 23.0852 141.483 22.4759 140.909 22.0199C140.338 21.5661 139.607 21.1474 138.714 20.7661C137.824 20.3848 136.863 19.991 135.834 19.5807C134.803 19.1703 133.853 18.6087 132.981 17.8937C132.11 17.1787 131.406 16.2606 130.872 15.1331C130.337 14.0099 130.12 12.5654 130.219 10.8017C130.331 8.82456 130.812 7.15415 131.658 5.78632C132.505 4.41642 133.559 3.29937 134.818 2.43307C136.077 1.56678 137.48 0.945044 139.027 0.563711C140.578 0.190667 142.106 0 143.615 0Z" fill="url(#paint3_linear)"/>
<path d="M175.428 0.746094L176.894 3.49211C176.906 3.51491 176.916 3.53978 176.925 3.56672L175.459 0.820703C175.451 0.79376 175.44 0.768891 175.428 0.746094Z" fill="#A3566E"/>
<path d="M175.461 0.820679L176.927 3.5667C176.952 3.64338 176.962 3.73457 176.956 3.84026L175.49 1.09424C175.494 0.988548 175.486 0.89736 175.461 0.820679Z" fill="#A85872"/>
<path d="M175.49 1.0943L176.956 3.84032L176.614 6.53245L175.148 3.78436L175.49 1.0943Z" fill="#AC5B75"/>
<path d="M171.39 6.84119L172.856 9.5872H166.347L164.879 6.84119H171.39Z" fill="#7F4356"/>
<path d="M175.148 3.78436L176.614 6.53038C176.612 6.53867 176.612 6.54696 176.61 6.55525L175.144 3.80923C175.146 3.80094 175.148 3.79265 175.148 3.78436Z" fill="#A85872"/>
<path d="M175.144 3.8092L176.61 6.55522C176.558 6.95521 176.469 7.32411 176.345 7.6557L174.879 4.90968C175.003 4.57809 175.092 4.21126 175.144 3.8092Z" fill="#A3566E"/>
<path d="M174.879 4.9118L176.345 7.65782C176.275 7.84849 176.192 8.02672 176.097 8.19459L174.631 5.44857C174.726 5.2807 174.809 5.1004 174.879 4.9118Z" fill="#9D536B"/>
<path d="M174.631 5.44855L176.097 8.19457C176.02 8.32928 175.937 8.45777 175.844 8.57797L174.378 5.83195C174.469 5.71175 174.554 5.58326 174.631 5.44855Z" fill="#985067"/>
<path d="M174.378 5.83197L175.844 8.57799C175.8 8.63394 175.757 8.6899 175.709 8.74171C175.687 8.76865 175.662 8.79352 175.637 8.81839L174.171 6.07238C174.196 6.04751 174.221 6.02056 174.243 5.9957C174.291 5.94181 174.335 5.88793 174.378 5.83197Z" fill="#934E64"/>
<path d="M174.173 6.07239L175.639 8.8184C175.585 8.87229 175.525 8.9241 175.463 8.97384L173.997 6.22782C174.059 6.18016 174.119 6.12834 174.173 6.07239Z" fill="#8E4B60"/>
<path d="M173.997 6.22778L175.463 8.9738C175.378 9.03805 175.285 9.09815 175.181 9.1541L173.715 6.40809C173.817 6.3542 173.91 6.2941 173.997 6.22778Z" fill="#89485D"/>
<path d="M173.715 6.40808L175.181 9.1541C174.643 9.44217 173.869 9.58724 172.856 9.58724L171.39 6.84123C172.403 6.84123 173.177 6.69615 173.715 6.40808Z" fill="#844659"/>
<path d="M164.879 6.84119L166.347 9.5872L165.512 16.016L164.044 13.27L164.879 6.84119Z" fill="#AC5B74"/>
<path d="M171.403 13.5601L172.869 16.3061C172.881 16.3289 172.891 16.3538 172.9 16.3807L171.434 13.6347C171.426 13.6078 171.415 13.5829 171.403 13.5601Z" fill="#A3566E"/>
<path d="M171.434 13.6348L172.9 16.3808C172.925 16.4575 172.935 16.5487 172.929 16.6543L171.463 13.9083C171.469 13.8026 171.459 13.7114 171.434 13.6348Z" fill="#A85872"/>
<path d="M171.463 13.9083L172.929 16.6543L172.591 19.3465L171.123 16.6005L171.463 13.9083Z" fill="#AC5B75"/>
<path d="M167.365 19.6553L168.831 22.4013H164.728L163.262 19.6553H167.365Z" fill="#7F4356"/>
<path d="M171.123 16.6005L172.589 19.3465C172.587 19.3548 172.587 19.3631 172.585 19.3713L171.119 16.6253C171.121 16.617 171.123 16.6088 171.123 16.6005Z" fill="#A85872"/>
<path d="M171.121 16.6253L172.587 19.3713C172.535 19.7713 172.446 20.1381 172.322 20.4697L170.856 17.7237C170.98 17.3921 171.067 17.0253 171.121 16.6253Z" fill="#A3566E"/>
<path d="M170.856 17.7238L172.322 20.4698C172.25 20.6604 172.167 20.8407 172.072 21.0086L170.606 18.2626C170.701 18.0947 170.784 17.9144 170.856 17.7238Z" fill="#9D536B"/>
<path d="M170.606 18.2626L172.072 21.0086C171.995 21.1454 171.91 21.2739 171.819 21.3941L170.353 18.6481C170.444 18.5278 170.529 18.3994 170.606 18.2626Z" fill="#985067"/>
<path d="M170.351 18.6481L171.817 21.3941C171.775 21.45 171.732 21.5039 171.686 21.5557C171.664 21.5827 171.639 21.6076 171.614 21.6324L170.148 18.8864C170.173 18.8615 170.198 18.8346 170.221 18.8097C170.266 18.7579 170.31 18.704 170.351 18.6481Z" fill="#934E64"/>
<path d="M170.148 18.8885L171.614 21.6345C171.56 21.6884 171.5 21.7402 171.438 21.7899L169.972 19.0439C170.036 18.9942 170.094 18.9424 170.148 18.8885Z" fill="#8E4B60"/>
<path d="M169.972 19.0439L171.438 21.7899C171.353 21.8541 171.26 21.9143 171.156 21.9702L169.691 19.2242C169.794 19.1682 169.887 19.1081 169.972 19.0439Z" fill="#89485D"/>
<path d="M169.691 19.2221L171.156 21.9681C170.618 22.2562 169.844 22.4013 168.829 22.4013L167.363 19.6553C168.378 19.6553 169.154 19.5102 169.691 19.2221Z" fill="#844659"/>
<path d="M163.262 19.6553L164.728 22.4013L163.825 29.1948L162.359 26.4488L163.262 19.6553Z" fill="#AC5B74"/>
<path d="M158.508 32.8341L159.974 35.5801C158.212 35.5801 156.974 35.2464 156.255 34.577C156.019 34.3573 155.827 34.1065 155.676 33.8247L154.21 31.0787C154.361 31.3605 154.553 31.6113 154.789 31.831C155.51 32.5004 156.748 32.8341 158.508 32.8341Z" fill="#844659"/>
<path d="M173.399 26.7762L174.865 29.5223C174.877 29.5471 174.887 29.572 174.898 29.5989L173.432 26.8529C173.421 26.826 173.411 26.799 173.399 26.7762Z" fill="#A3566E"/>
<path d="M173.43 26.8529L174.896 29.5989C174.918 29.6694 174.927 29.7461 174.923 29.8331L173.457 27.0871C173.463 27 173.453 26.9213 173.43 26.8529Z" fill="#A85872"/>
<path d="M173.457 27.0872L174.923 29.8332L174.583 32.5253L173.117 29.7793L173.457 27.0872Z" fill="#AC5B75"/>
<path d="M169.359 32.834L170.825 35.5801H159.976L158.508 32.834H169.359Z" fill="#7F4356"/>
<path d="M173.117 29.7792L174.583 32.5253C174.581 32.5377 174.581 32.548 174.579 32.5605L173.113 29.8145C173.113 29.802 173.115 29.7896 173.117 29.7792Z" fill="#A85872"/>
<path d="M173.113 29.8124L174.579 32.5584C174.527 32.9563 174.438 33.319 174.316 33.6485L172.85 30.9025C172.972 30.573 173.059 30.2103 173.113 29.8124Z" fill="#A3566E"/>
<path d="M172.848 30.9025L174.314 33.6485C174.243 33.8392 174.161 34.0174 174.065 34.1853L172.6 31.4393C172.695 31.2735 172.778 31.0932 172.848 30.9025Z" fill="#9D536B"/>
<path d="M172.6 31.4413L174.065 34.1874C173.989 34.3241 173.904 34.4526 173.811 34.5728L172.345 31.8268C172.438 31.7045 172.523 31.5761 172.6 31.4413Z" fill="#985067"/>
<path d="M172.345 31.8268L173.811 34.5729C173.767 34.6288 173.724 34.6827 173.678 34.7366C173.655 34.7635 173.631 34.7905 173.606 34.8153L172.14 32.0693C172.165 32.0445 172.19 32.0175 172.212 31.9906C172.258 31.9367 172.303 31.8828 172.345 31.8268Z" fill="#934E64"/>
<path d="M172.14 32.0693L173.606 34.8153C173.552 34.8692 173.494 34.921 173.43 34.9687L171.964 32.2226C172.028 32.175 172.086 32.1232 172.14 32.0693Z" fill="#8E4B60"/>
<path d="M171.964 32.2227L173.43 34.9687C173.345 35.0329 173.252 35.093 173.15 35.1469L171.684 32.4009C171.788 32.347 171.879 32.2869 171.964 32.2227Z" fill="#89485D"/>
<path d="M171.684 32.4009L173.15 35.1469C172.612 35.435 171.838 35.578 170.823 35.578L169.357 32.832C170.372 32.834 171.148 32.689 171.684 32.4009Z" fill="#844659"/>
<path d="M190.857 8.22145L192.323 10.9675C192.159 10.6607 191.933 10.3892 191.646 10.1571C191.254 9.83797 190.699 9.67839 189.975 9.67839C189.19 9.67839 188.461 9.85869 187.79 10.2193L186.325 7.47329C186.995 7.11268 187.722 6.93237 188.509 6.93237C189.234 6.93237 189.788 7.09195 190.18 7.41111C190.468 7.64323 190.693 7.91472 190.857 8.22145Z" fill="#844659"/>
<path d="M186.325 7.47119L187.79 10.2172C187.602 10.3188 187.416 10.4348 187.236 10.5654C187.205 10.5882 187.176 10.6089 187.147 10.6317L185.681 7.88568C185.71 7.86289 185.741 7.84009 185.77 7.81937C185.952 7.6888 186.136 7.57274 186.325 7.47119Z" fill="#89485D"/>
<path d="M185.681 7.88568L187.147 10.6317C187.01 10.7353 186.886 10.8452 186.772 10.9591L185.306 8.21313C185.422 8.09915 185.546 7.99138 185.681 7.88568Z" fill="#8E4B60"/>
<path d="M185.308 8.21313L186.774 10.9592C186.677 11.0586 186.585 11.1602 186.505 11.268L185.039 8.52193C185.12 8.41624 185.209 8.31261 185.308 8.21313Z" fill="#934E64"/>
<path d="M185.039 8.52197L186.505 11.268C186.426 11.3716 186.354 11.4815 186.291 11.5934L184.826 8.84735C184.888 8.73544 184.958 8.62767 185.039 8.52197Z" fill="#985067"/>
<path d="M184.824 8.84735L186.29 11.5934C186.219 11.7198 186.157 11.8504 186.107 11.9851L184.642 9.23905C184.693 9.10434 184.753 8.97377 184.824 8.84735Z" fill="#9D536B"/>
<path d="M184.641 9.23901L186.107 11.985C186.031 12.1902 185.979 12.4037 185.948 12.6296L184.482 9.88355C184.513 9.65972 184.565 9.44419 184.641 9.23901Z" fill="#A3566E"/>
<path d="M184.484 9.88354L185.95 12.6296C185.939 12.7083 185.931 12.7871 185.927 12.8679C185.908 13.2078 185.946 13.5228 186.039 13.8088L184.573 11.0628C184.478 10.7747 184.44 10.4618 184.461 10.1219C184.465 10.0431 184.474 9.9623 184.484 9.88354Z" fill="#A85872"/>
<path d="M184.573 11.0649L186.039 13.8109C186.078 13.9311 186.128 14.0472 186.188 14.1591L184.722 11.4131C184.662 11.3011 184.613 11.1851 184.573 11.0649Z" fill="#A3566E"/>
<path d="M197.857 3.40918L199.323 6.1552C199.47 6.43291 199.594 6.72305 199.693 7.02356L198.228 4.27754C198.128 3.97703 198.006 3.68689 197.857 3.40918Z" fill="#A3566E"/>
<path d="M198.228 4.27753L199.694 7.02354C199.94 7.76963 200.037 8.59447 199.985 9.49392C199.973 9.70117 199.954 9.90427 199.93 10.1012L198.464 7.35514C198.489 7.15825 198.507 6.95723 198.52 6.74791C198.571 5.84846 198.474 5.02569 198.228 4.27753Z" fill="#A85872"/>
<path d="M198.466 7.35516L199.932 10.1012C199.865 10.6089 199.751 11.0773 199.592 11.5063L198.126 8.76029C198.286 8.33337 198.399 7.86499 198.466 7.35516Z" fill="#A3566E"/>
<path d="M198.126 8.76031L199.592 11.5063C199.499 11.7571 199.389 11.9934 199.263 12.2172L197.797 9.47117C197.921 9.24734 198.031 9.01108 198.126 8.76031Z" fill="#9D536B"/>
<path d="M197.797 9.47113L199.263 12.2171C199.159 12.3995 199.045 12.5715 198.921 12.7353L197.455 9.98925C197.58 9.82552 197.693 9.65351 197.797 9.47113Z" fill="#985067"/>
<path d="M197.455 9.98926L198.921 12.7353C198.803 12.8907 198.677 13.0358 198.54 13.1746L197.074 10.4286C197.211 10.2898 197.337 10.1447 197.455 9.98926Z" fill="#934E64"/>
<path d="M197.074 10.4286L198.54 13.1747C198.466 13.2513 198.387 13.3239 198.306 13.3943C198.232 13.4607 198.153 13.5228 198.074 13.585L196.609 10.839C196.687 10.7789 196.766 10.7147 196.84 10.6483C196.921 10.5779 196.998 10.5033 197.074 10.4286Z" fill="#8E4B60"/>
<path d="M196.606 10.8389L198.072 13.5849C197.869 13.7404 197.652 13.8813 197.42 14.0057L195.954 11.2596C196.186 11.1332 196.404 10.9944 196.606 10.8389Z" fill="#89485D"/>
<path d="M195.954 11.2576L197.42 14.0036C196.507 14.4927 195.377 14.7393 194.031 14.7393C193.463 14.7393 193.105 14.6854 192.954 14.5797C192.904 14.5445 192.865 14.4989 192.834 14.4409L191.368 11.6949C191.399 11.7529 191.441 11.8006 191.488 11.8337C191.639 11.9394 192 11.9933 192.565 11.9933C193.911 11.9933 195.041 11.7487 195.954 11.2576Z" fill="#844659"/>
<path d="M188.031 22.6852L189.497 25.4312C189.364 25.1846 189.178 24.9628 188.935 24.7701C188.364 24.3162 187.633 23.8976 186.741 23.5162C185.85 23.1349 184.89 22.7411 183.861 22.3308C182.83 21.9204 181.879 21.3588 181.008 20.6438C180.242 20.0158 179.604 19.2304 179.099 18.2832L177.633 15.5372C178.138 16.4823 178.774 17.2677 179.542 17.8978C180.413 18.6128 181.364 19.1744 182.395 19.5848C183.424 19.9951 184.387 20.3889 185.275 20.7702C186.167 21.1515 186.896 21.5681 187.47 22.024C187.712 22.2189 187.898 22.4385 188.031 22.6852Z" fill="#844659"/>
<path d="M196.097 19.4376L197.563 22.1836C197.573 22.2023 197.584 22.2209 197.594 22.2417C197.739 22.5173 197.861 22.8095 197.965 23.1204L196.499 20.3744C196.397 20.0635 196.273 19.7692 196.128 19.4957C196.118 19.4749 196.107 19.4563 196.097 19.4376Z" fill="#A3566E"/>
<path d="M196.499 20.3744L197.965 23.1204C198.275 24.0655 198.395 25.1784 198.323 26.4571C198.306 26.7431 198.279 27.027 198.244 27.3047L196.778 24.5587C196.816 24.281 196.84 23.9971 196.857 23.7111C196.929 22.4323 196.809 21.3194 196.499 20.3744Z" fill="#A85872"/>
<path d="M196.778 24.5608L198.244 27.3068C198.139 28.1151 197.946 28.8902 197.669 29.6342L196.203 26.8882C196.48 26.1442 196.673 25.3691 196.778 24.5608Z" fill="#A3566E"/>
<path d="M196.201 26.886L197.667 29.6321C197.592 29.831 197.511 30.0258 197.426 30.2206C197.304 30.4963 197.17 30.7636 197.023 31.0227L195.557 28.2767C195.704 28.0176 195.838 27.7503 195.96 27.4746C196.047 27.2819 196.128 27.085 196.201 26.886Z" fill="#9D536B"/>
<path d="M195.557 28.2767L197.023 31.0228C196.82 31.3813 196.594 31.7253 196.346 32.0528L194.88 29.3067C195.128 28.9793 195.354 28.6353 195.557 28.2767Z" fill="#985067"/>
<path d="M194.88 29.3067L196.346 32.0527C196.103 32.3698 195.84 32.6724 195.557 32.9605L194.091 30.2144C194.375 29.9264 194.637 29.6238 194.88 29.3067Z" fill="#934E64"/>
<path d="M194.091 30.2124L195.557 32.9584C195.449 33.0662 195.339 33.174 195.225 33.2776C195.039 33.4475 194.845 33.6112 194.642 33.7667L193.176 31.0207C193.379 30.8652 193.573 30.7015 193.76 30.5316C193.873 30.4279 193.983 30.3202 194.091 30.2124Z" fill="#8E4B60"/>
<path d="M193.176 31.0206L194.642 33.7666C194.248 34.0672 193.822 34.3407 193.364 34.5873L191.898 31.8413C192.356 31.5968 192.782 31.3211 193.176 31.0206Z" fill="#89485D"/>
<path d="M191.898 31.8413L193.364 34.5873C192.855 34.8609 192.306 35.1013 191.716 35.3065C190.321 35.7914 188.712 36.036 186.888 36.036C185.316 36.036 183.869 35.8681 182.552 35.5345C181.235 35.2008 180.095 34.7821 179.132 34.2806C178.171 33.7791 177.422 33.2319 176.889 32.6392C176.66 32.3843 176.482 32.1377 176.357 31.9035L174.891 29.1575C175.018 29.3937 175.194 29.6383 175.424 29.8932C175.956 30.4859 176.703 31.0331 177.666 31.5346C178.629 32.0361 179.769 32.4548 181.086 32.7884C182.403 33.1242 183.85 33.29 185.422 33.29C187.246 33.29 188.855 33.0475 190.25 32.5605C190.838 32.3553 191.389 32.1149 191.898 31.8413Z" fill="#844659"/>
<path d="M174.769 0.455933C174.958 0.455933 175.13 0.501527 175.281 0.590643C175.434 0.681831 175.502 0.849701 175.488 1.09218L175.148 3.78431C175.032 4.6962 174.732 5.43399 174.246 5.99563C173.757 6.55934 172.807 6.83913 171.392 6.83913H164.881L164.046 13.2679H170.746C170.935 13.2679 171.105 13.3135 171.258 13.4047C171.409 13.4959 171.477 13.6638 171.465 13.9062L171.123 16.6004C171.007 17.5123 170.707 18.2501 170.221 18.8118C169.732 19.3755 168.782 19.6553 167.365 19.6553H163.262L162.359 26.4488H172.736C172.925 26.4488 173.094 26.5027 173.248 26.6084C173.399 26.7141 173.469 26.8737 173.457 27.0871L173.117 29.7792C173.003 30.6911 172.701 31.4289 172.214 31.9906C171.728 32.5543 170.775 32.8341 169.361 32.8341H158.512C156.75 32.8341 155.512 32.5004 154.794 31.831C154.075 31.1637 153.754 30.2041 153.825 28.9565C153.86 28.3492 153.965 27.3089 154.141 25.8333C154.319 24.3598 154.539 22.679 154.802 20.7951C155.065 18.9112 155.336 16.9196 155.611 14.8202C155.887 12.7229 156.156 10.7478 156.417 8.89294C156.68 7.03808 156.897 5.4112 157.069 4.01436C157.241 2.61751 157.344 1.65796 157.373 1.13985C157.398 0.683904 157.661 0.455933 158.166 0.455933H174.769Z" fill="url(#paint4_linear)"/>
<path d="M190.174 0C193.13 0 195.288 0.623812 196.65 1.86936C198.01 3.11492 198.636 4.7418 198.522 6.74795C198.426 8.44944 197.865 9.75095 196.84 10.6463C195.813 11.5416 194.389 11.9913 192.565 11.9913C191.998 11.9913 191.639 11.9374 191.488 11.8317C191.337 11.726 191.271 11.5063 191.29 11.1706C191.306 10.8659 191.306 10.4701 191.287 9.98307C191.267 9.49811 191.176 9.02559 191.012 8.56965C190.849 8.1137 190.571 7.72615 190.18 7.40699C189.788 7.08783 189.234 6.92825 188.509 6.92825C187.503 6.92825 186.59 7.22462 185.77 7.81734C184.95 8.41007 184.513 9.17895 184.459 10.1199C184.414 10.9405 184.697 11.61 185.314 12.126C185.929 12.6441 186.712 13.1229 187.662 13.5622C188.612 14.0037 189.648 14.4513 190.772 14.9072C191.894 15.3632 192.921 15.9642 193.855 16.7082C194.787 17.4543 195.544 18.3828 196.128 19.4915C196.71 20.6024 196.952 22.0075 196.857 23.709C196.782 25.0478 196.482 26.3017 195.96 27.4705C195.439 28.6415 194.706 29.6591 193.76 30.5274C192.815 31.3937 191.646 32.0693 190.248 32.5564C188.853 33.0413 187.244 33.2859 185.42 33.2859C183.848 33.2859 182.401 33.118 181.084 32.7843C179.767 32.4507 178.627 32.032 177.664 31.5305C176.703 31.029 175.954 30.4818 175.422 29.8891C174.889 29.2964 174.635 28.7575 174.664 28.2705C174.778 26.2644 174.976 24.8199 175.262 23.937C175.548 23.0562 176.003 22.6147 176.633 22.6147C177.074 22.6147 177.525 22.7971 177.993 23.1619C178.461 23.5246 178.995 23.937 179.598 24.3929C180.202 24.8489 180.91 25.2592 181.722 25.624C182.536 25.9887 183.492 26.1711 184.594 26.1711C185.033 26.1711 185.467 26.1338 185.896 26.0571C186.325 25.9804 186.71 25.8519 187.049 25.6696C187.391 25.4872 187.67 25.2447 187.894 24.9401C188.116 24.6354 188.238 24.2706 188.263 23.8437C188.306 23.0852 188.041 22.4759 187.467 22.0199C186.896 21.5661 186.165 21.1474 185.273 20.7661C184.382 20.3848 183.422 19.991 182.393 19.5807C181.362 19.1703 180.411 18.6087 179.54 17.8937C178.668 17.1787 177.964 16.2606 177.43 15.1331C176.896 14.0099 176.678 12.5654 176.778 10.8017C176.889 8.82456 177.37 7.15415 178.217 5.78632C179.063 4.41642 180.117 3.29937 181.376 2.43307C182.635 1.56678 184.039 0.945044 185.585 0.563711C187.136 0.190667 188.664 0 190.174 0Z" fill="url(#paint5_linear)"/>
<path d="M18.1848 7.33655L19.6507 10.0826C19.6983 10.1717 19.7377 10.2649 19.7687 10.3623L18.3028 7.61633C18.2718 7.51685 18.2325 7.42359 18.1848 7.33655Z" fill="#A3566E"/>
<path d="M18.3051 7.61426L19.771 10.3603C19.8372 10.5634 19.8662 10.7831 19.8538 11.011L18.3879 8.26501C18.4003 8.03704 18.3714 7.81736 18.3051 7.61426Z" fill="#A85872"/>
<path d="M18.3877 8.26703L19.8536 11.013L19.541 16.5631L18.0751 13.8171L18.3877 8.26703Z" fill="#AC5B75"/>
<path d="M1.84094 23.4355L3.30682 26.1815C2.58423 26.1815 1.97345 25.8001 1.67116 25.2323L0.205276 22.4863C0.507563 23.0541 1.11835 23.4355 1.84094 23.4355Z" fill="#844659"/>
<path d="M7.58202 23.4354L9.0479 26.1814H3.30652L1.84064 23.4354H7.58202Z" fill="#7F4356"/>
<path d="M25.4521 14.7642L26.918 17.5102C26.9656 17.5994 27.005 17.6926 27.036 17.79L25.5701 15.044C25.5391 14.9466 25.4998 14.8533 25.4521 14.7642Z" fill="#A3566E"/>
<path d="M25.5703 15.044L27.0362 17.79C27.1025 17.9931 27.1315 18.2128 27.119 18.4408L25.6531 15.6948C25.6676 15.4668 25.6366 15.2471 25.5703 15.044Z" fill="#A85872"/>
<path d="M25.653 15.6948L27.1189 18.4408L26.7897 24.3038L25.3238 21.5578L25.653 15.6948Z" fill="#AC5B75"/>
<path d="M9.10795 30.8652L10.5738 33.6112C9.85125 33.6112 9.24046 33.2299 8.93817 32.662L7.47229 29.916C7.77458 30.4839 8.38329 30.8652 9.10795 30.8652Z" fill="#844659"/>
<path d="M23.2761 23.4354L24.742 26.1814H18.9985L17.5326 23.4354H23.2761Z" fill="#7F4356"/>
<path d="M25.3238 21.5578L26.7897 24.3038C26.7876 24.3494 26.7835 24.395 26.7772 24.4385L25.3114 21.6925C25.3155 21.6469 25.3196 21.6034 25.3238 21.5578Z" fill="#A85872"/>
<path d="M25.3114 21.6925L26.7772 24.4385C26.7586 24.5815 26.7234 24.7225 26.6737 24.8551L25.2078 22.1091C25.2575 21.9764 25.2927 21.8355 25.3114 21.6925Z" fill="#A3566E"/>
<path d="M25.2078 22.1091L26.6737 24.8551C26.6385 24.9504 26.595 25.0437 26.5454 25.1307L25.0795 22.3847C25.1292 22.2977 25.1706 22.2044 25.2078 22.1091Z" fill="#9D536B"/>
<path d="M25.0774 22.3847L26.5433 25.1307C26.4977 25.2095 26.448 25.2862 26.3921 25.3587L24.9263 22.6127C24.9822 22.5422 25.0339 22.4655 25.0774 22.3847Z" fill="#985067"/>
<path d="M24.9283 22.6147L26.3942 25.3608C26.3404 25.4333 26.2803 25.4996 26.2182 25.5639L24.7523 22.8178C24.8144 22.7536 24.8724 22.6852 24.9283 22.6147Z" fill="#934E64"/>
<path d="M24.7503 22.8179L26.2161 25.5639C26.1499 25.6323 26.0774 25.6945 26.0008 25.7525L24.5349 23.0065C24.6115 22.9484 24.684 22.8842 24.7503 22.8179Z" fill="#8E4B60"/>
<path d="M24.537 23.0065L26.0029 25.7525C25.9139 25.8209 25.8186 25.8831 25.7172 25.9369L24.2513 23.1909C24.3507 23.137 24.4459 23.0749 24.537 23.0065Z" fill="#89485D"/>
<path d="M24.2513 23.1909L25.7172 25.9369C25.4252 26.0924 25.0919 26.1836 24.742 26.1836L23.2761 23.4375C23.626 23.4355 23.9573 23.3464 24.2513 23.1909Z" fill="#844659"/>
<path d="M17.5326 23.4354L18.9985 26.1814L18.6859 31.7315L17.22 28.9855L17.5326 23.4354Z" fill="#AC5B75"/>
<path d="M15.1702 30.8652L16.6382 33.6113H10.5738L9.10794 30.8652H15.1702Z" fill="#7F4356"/>
<path d="M16.5512 6.38733C17.6237 6.38733 18.4457 7.22875 18.3877 8.26706L18.0751 13.8171H23.8185C24.891 13.8171 25.713 14.6585 25.655 15.6968L25.3238 21.5578C25.2658 22.5961 24.3486 23.4375 23.2761 23.4375H17.5326L17.22 28.9876C17.162 30.0259 16.2448 30.8673 15.1723 30.8673H9.10794C8.03545 30.8673 7.21141 30.0259 7.26938 28.9876L7.58202 23.4375H1.84064C0.768141 23.4375 -0.0559008 22.5961 0.00207199 21.5578L0.333345 15.6968C0.391318 14.6585 1.3106 13.8171 2.3831 13.8171H8.12448L8.43712 8.26706C8.49509 7.22875 9.41437 6.38733 10.4869 6.38733H16.5512V6.38733Z" fill="#DC7495"/>
<path d="M17.22 28.9855L18.6859 31.7315C18.6838 31.7771 18.6797 31.8227 18.6735 31.8662L17.2076 29.1202C17.2117 29.0767 17.2159 29.0311 17.22 28.9855Z" fill="#A85872"/>
<path d="M17.2076 29.1223L18.6735 31.8683C18.6548 32.0113 18.6196 32.1522 18.5699 32.2848L17.104 29.5388C17.1537 29.4041 17.1889 29.2653 17.2076 29.1223Z" fill="#A3566E"/>
<path d="M17.104 29.5388L18.5699 32.2848C18.5347 32.3802 18.4913 32.4734 18.4416 32.5605L16.9757 29.8145C17.0233 29.7253 17.0668 29.6342 17.104 29.5388Z" fill="#9D536B"/>
<path d="M16.9736 29.8145L18.4395 32.5605C18.394 32.6392 18.3443 32.7159 18.2884 32.7884L16.8225 30.0424C16.8784 29.9699 16.9301 29.8932 16.9736 29.8145Z" fill="#985067"/>
<path d="M16.8245 30.0425L18.2904 32.7885C18.2366 32.861 18.1766 32.9273 18.1144 32.9916L16.6486 30.2456C16.7107 30.1834 16.7686 30.115 16.8245 30.0425Z" fill="#934E64"/>
<path d="M16.6465 30.2455L18.1124 32.9916C18.0461 33.06 17.9737 33.1221 17.897 33.1802L16.4312 30.4341C16.5078 30.3782 16.5802 30.3139 16.6465 30.2455Z" fill="#8E4B60"/>
<path d="M16.4312 30.4362L17.897 33.1822C17.808 33.2506 17.7128 33.3128 17.6113 33.3667L16.1454 30.6207C16.2469 30.5647 16.3421 30.5046 16.4312 30.4362Z" fill="#89485D"/>
<path d="M16.1475 30.6186L17.6134 33.3646C17.3215 33.52 16.9881 33.6112 16.6382 33.6112L15.1723 30.8652C15.5202 30.8652 15.8535 30.7761 16.1475 30.6186Z" fill="#844659"/>
<defs>
<linearGradient id="paint0_linear" x1="56.3768" y1="30.1546" x2="56.3768" y2="-8.15166" gradientUnits="userSpaceOnUse">
<stop offset="0.005618" stop-color="#08A1C8"/>
<stop offset="0.1207" stop-color="#0DA3C9"/>
<stop offset="0.2649" stop-color="#1DA8CD"/>
<stop offset="0.4245" stop-color="#36B0D2"/>
<stop offset="0.5954" stop-color="#5ABBDA"/>
<stop offset="0.7752" stop-color="#88CAE5"/>
<stop offset="0.9598" stop-color="#BFDCF1"/>
<stop offset="1" stop-color="#CCE0F4"/>
</linearGradient>
<linearGradient id="paint1_linear" x1="85.2786" y1="30.1546" x2="85.2786" y2="-8.15165" gradientUnits="userSpaceOnUse">
<stop offset="0.005618" stop-color="#08A1C8"/>
<stop offset="0.1207" stop-color="#0DA3C9"/>
<stop offset="0.2649" stop-color="#1DA8CD"/>
<stop offset="0.4245" stop-color="#36B0D2"/>
<stop offset="0.5954" stop-color="#5ABBDA"/>
<stop offset="0.7752" stop-color="#88CAE5"/>
<stop offset="0.9598" stop-color="#BFDCF1"/>
<stop offset="1" stop-color="#CCE0F4"/>
</linearGradient>
<linearGradient id="paint2_linear" x1="112.515" y1="30.1546" x2="112.515" y2="-8.15166" gradientUnits="userSpaceOnUse">
<stop offset="0.005618" stop-color="#08A1C8"/>
<stop offset="0.1207" stop-color="#0DA3C9"/>
<stop offset="0.2649" stop-color="#1DA8CD"/>
<stop offset="0.4245" stop-color="#36B0D2"/>
<stop offset="0.5954" stop-color="#5ABBDA"/>
<stop offset="0.7752" stop-color="#88CAE5"/>
<stop offset="0.9598" stop-color="#BFDCF1"/>
<stop offset="1" stop-color="#CCE0F4"/>
</linearGradient>
<linearGradient id="paint3_linear" x1="140.041" y1="30.1546" x2="140.041" y2="-8.15165" gradientUnits="userSpaceOnUse">
<stop offset="0.005618" stop-color="#08A1C8"/>
<stop offset="0.1207" stop-color="#0DA3C9"/>
<stop offset="0.2649" stop-color="#1DA8CD"/>
<stop offset="0.4245" stop-color="#36B0D2"/>
<stop offset="0.5954" stop-color="#5ABBDA"/>
<stop offset="0.7752" stop-color="#88CAE5"/>
<stop offset="0.9598" stop-color="#BFDCF1"/>
<stop offset="1" stop-color="#CCE0F4"/>
</linearGradient>
<linearGradient id="paint4_linear" x1="164.651" y1="28.8216" x2="164.651" y2="-11.5225" gradientUnits="userSpaceOnUse">
<stop offset="0.005618" stop-color="#DC7495"/>
<stop offset="0.1471" stop-color="#DD7999"/>
<stop offset="0.3242" stop-color="#E189A5"/>
<stop offset="0.5202" stop-color="#E8A2B8"/>
<stop offset="0.73" stop-color="#F1C6D3"/>
<stop offset="0.9484" stop-color="#FCF3F6"/>
<stop offset="1" stop-color="white"/>
</linearGradient>
<linearGradient id="paint5_linear" x1="186.598" y1="28.8216" x2="186.598" y2="-11.5225" gradientUnits="userSpaceOnUse">
<stop offset="0.005618" stop-color="#DC7495"/>
<stop offset="0.1471" stop-color="#DD7999"/>
<stop offset="0.3242" stop-color="#E189A5"/>
<stop offset="0.5202" stop-color="#E8A2B8"/>
<stop offset="0.73" stop-color="#F1C6D3"/>
<stop offset="0.9484" stop-color="#FCF3F6"/>
<stop offset="1" stop-color="white"/>
</linearGradient>
</defs>
</svg>
