<svg width="100" height="31" viewBox="0 0 100 31" fill="none" xmlns="http://www.w3.org/2000/svg">
<path d="M19.064 8.84C19.136 9.584 19.196 10.328 19.244 11.072C19.292 11.816 19.34 12.596 19.388 13.412C19.604 12.74 19.796 12.104 19.964 11.504C20.156 10.904 20.348 10.304 20.54 9.704C20.852 8.792 21.152 7.88 21.44 6.968C21.752 6.056 22.088 5.156 22.448 4.268C22.592 3.884 22.772 3.524 22.988 3.188C23.228 2.852 23.468 2.516 23.708 2.18C23.996 1.748 24.344 1.496 24.752 1.424C25.16 1.328 25.592 1.352 26.048 1.496C27.056 1.856 27.908 2.372 28.604 3.044C29.3 3.716 29.756 4.604 29.972 5.708C30.14 6.476 30.284 7.256 30.404 8.048C30.548 8.816 30.644 9.584 30.692 10.352C30.788 12.512 30.8 14.672 30.728 16.832C30.656 18.968 30.524 21.104 30.332 23.24C30.26 23.96 30.2 24.692 30.152 25.436C30.128 26.156 30.092 26.876 30.044 27.596C29.996 28.58 29.768 29.264 29.36 29.648C28.952 30.032 28.172 30.032 27.02 29.648C25.964 29.288 25.196 28.784 24.716 28.136C24.236 27.464 23.996 26.54 23.996 25.364C24.02 23.996 24.068 22.628 24.14 21.26C24.212 19.868 24.284 18.488 24.356 17.12C24.428 15.8 24.512 14.504 24.608 13.232C24.728 11.936 24.836 10.628 24.932 9.308C24.932 9.14 24.92 8.96 24.896 8.768C24.872 8.576 24.824 8.372 24.752 8.156C24.512 8.732 24.272 9.308 24.032 9.884C23.816 10.46 23.612 11.036 23.42 11.612C22.868 13.1 22.4 14.624 22.016 16.184C21.632 17.72 21.272 19.256 20.936 20.792C20.648 22.016 20.348 23.228 20.036 24.428C19.724 25.604 19.436 26.804 19.172 28.028C18.98 28.82 18.692 29.288 18.308 29.432C17.924 29.6 17.36 29.564 16.616 29.324C15.776 29.06 15.08 28.64 14.528 28.064C14 27.464 13.664 26.708 13.52 25.796C13.424 25.052 13.328 24.308 13.232 23.564C13.16 22.82 13.124 22.076 13.124 21.332C13.124 19.052 13.136 16.784 13.16 14.528C13.208 12.272 13.244 10.004 13.268 7.724C13.268 7.412 13.268 7.088 13.268 6.752C13.268 6.392 13.268 5.996 13.268 5.564C13.004 5.828 12.824 6.092 12.728 6.356C12.632 6.596 12.56 6.836 12.512 7.076C12.248 8.012 11.996 8.96 11.756 9.92C11.516 10.88 11.3 11.84 11.108 12.8C10.652 15.056 10.196 17.324 9.74 19.604C9.284 21.884 8.828 24.164 8.372 26.444C8.324 26.636 8.276 26.828 8.228 27.02C8.204 27.212 8.156 27.392 8.084 27.56C7.94 28.064 7.736 28.4 7.472 28.568C7.232 28.736 6.872 28.784 6.392 28.712C5.384 28.592 4.52 28.256 3.8 27.704C3.08 27.128 2.54 26.348 2.18 25.364C1.988 24.86 1.844 24.344 1.748 23.816C1.628 23.264 1.532 22.712 1.46 22.16C1.364 21.224 1.28 20.276 1.208 19.316C1.112 18.332 1.064 17.36 1.064 16.4C1.016 14.6 0.992 12.812 0.992 11.036C0.992 9.236 0.992 7.436 0.992 5.636C0.992 5.252 1.028 4.868 1.1 4.484C1.148 4.1 1.208 3.704 1.28 3.296C1.304 3.032 1.388 2.732 1.532 2.396C1.844 1.676 2.396 1.376 3.188 1.496C4.124 1.616 4.916 1.988 5.564 2.612C6.236 3.236 6.644 4.04 6.788 5.024C7.028 6.392 7.16 7.76 7.184 9.128C7.232 10.376 7.256 11.624 7.256 12.872C7.256 14.096 7.256 15.332 7.256 16.58C7.256 16.724 7.256 16.88 7.256 17.048C7.28 17.192 7.316 17.348 7.364 17.516C7.436 17.252 7.508 16.988 7.58 16.724C7.652 16.46 7.712 16.196 7.76 15.932C8.048 14.516 8.324 13.112 8.588 11.72C8.876 10.304 9.152 8.888 9.416 7.472C9.584 6.584 9.836 5.744 10.172 4.952C10.508 4.136 10.916 3.356 11.396 2.612C12.188 1.412 13.292 1.064 14.708 1.568C16.148 2.12 17.228 3.116 17.948 4.556C18.284 5.228 18.536 5.924 18.704 6.644C18.896 7.364 19.016 8.096 19.064 8.84ZM51.6842 20.828C51.9482 20.828 52.1642 20.936 52.3322 21.152C52.5242 21.368 52.5842 21.608 52.5122 21.872C52.3922 22.424 52.1882 23.096 51.9002 23.888C51.6362 24.68 51.2762 25.46 50.8202 26.228C50.3642 26.972 49.7882 27.608 49.0922 28.136C48.3962 28.664 47.5682 28.964 46.6082 29.036C45.7922 29.06 45.0962 28.904 44.5202 28.568C43.9442 28.232 43.4642 27.716 43.0802 27.02C42.8402 26.588 42.6482 26.132 42.5042 25.652C42.3842 25.172 42.2522 24.632 42.1082 24.032C41.7242 24.752 41.3642 25.424 41.0282 26.048C40.7162 26.672 40.3202 27.224 39.8402 27.704C39.3362 28.208 38.7362 28.568 38.0402 28.784C36.9842 29.096 36.0482 29.108 35.2322 28.82C34.4402 28.508 33.7442 27.788 33.1442 26.66C32.9282 26.228 32.7602 25.604 32.6402 24.788C32.4962 23.972 32.4122 23.072 32.3882 22.088C32.3402 21.08 32.3282 20.06 32.3522 19.028C32.3522 17.972 32.3882 16.988 32.4602 16.076C32.5082 15.164 32.5802 14.396 32.6762 13.772C32.7002 13.484 32.7602 13.196 32.8562 12.908C33.0482 12.26 33.2762 11.828 33.5402 11.612C33.8042 11.396 34.2122 11.288 34.7642 11.288C36.1082 11.336 36.9122 11.9 37.1762 12.98C37.2482 13.268 37.2842 13.568 37.2842 13.88C37.2842 14.288 37.2602 14.888 37.2122 15.68C37.1642 16.472 37.1162 17.348 37.0682 18.308C37.0202 19.268 36.9722 20.228 36.9242 21.188C36.9002 22.124 36.8882 22.976 36.8882 23.744C36.8882 24.488 36.9362 25.028 37.0322 25.364C37.1042 25.628 37.1762 25.916 37.2482 26.228C37.3202 26.516 37.4762 26.684 37.7162 26.732C38.1722 26.684 38.6282 26.456 39.0842 26.048C39.5402 25.616 39.9602 25.1 40.3442 24.5C40.7282 23.9 41.0522 23.288 41.3162 22.664C41.6042 22.016 41.8082 21.44 41.9282 20.936C42.0002 20.768 42.0362 20.6 42.0362 20.432C42.0362 20.264 42.0362 20.096 42.0362 19.928C42.0842 18.896 42.1682 17.744 42.2882 16.472C42.4322 15.176 42.6122 14.012 42.8282 12.98C43.0202 12.212 43.2842 11.708 43.6202 11.468C43.9802 11.204 44.5322 11.144 45.2762 11.288C45.7802 11.408 46.1522 11.576 46.3922 11.792C46.6562 12.008 46.8002 12.404 46.8242 12.98C46.8722 13.508 46.8722 14.12 46.8242 14.816C46.8002 15.488 46.7522 16.172 46.6802 16.868C46.6322 17.54 46.5842 18.128 46.5362 18.632C46.4642 19.208 46.3922 19.892 46.3202 20.684C46.2482 21.452 46.1882 22.244 46.1402 23.06C46.0922 23.852 46.0922 24.596 46.1402 25.292C46.1882 25.988 46.3202 26.552 46.5362 26.984C46.6082 27.2 46.7882 27.32 47.0762 27.344C47.3642 27.368 47.5802 27.32 47.7242 27.2C48.1082 26.888 48.4442 26.552 48.7322 26.192C49.0442 25.832 49.3082 25.436 49.5242 25.004C49.8362 24.452 50.1002 23.888 50.3162 23.312C50.5562 22.736 50.7362 22.136 50.8562 21.512C50.9522 21.056 51.2282 20.828 51.6842 20.828ZM66.5823 16.976C66.7023 17.024 66.7623 17.096 66.7623 17.192C66.7623 17.288 66.7383 17.372 66.6903 17.444C66.5463 17.924 66.3783 18.392 66.1863 18.848C66.0183 19.304 65.8143 19.748 65.5743 20.18C65.4063 20.492 65.2023 20.768 64.9623 21.008C64.7463 21.224 64.4343 21.32 64.0263 21.296C63.5463 21.272 63.1023 21.176 62.6943 21.008C62.2863 20.84 61.9623 20.528 61.7223 20.072C61.6023 19.808 61.4943 19.544 61.3983 19.28C61.3263 19.016 61.2783 18.74 61.2543 18.452C61.1343 17.804 61.0263 17.156 60.9303 16.508C60.8583 15.836 60.7743 15.176 60.6783 14.528C60.4863 14.552 60.3663 14.624 60.3183 14.744C60.2703 14.864 60.2343 14.984 60.2103 15.104C59.9703 15.704 59.6943 16.472 59.3823 17.408C59.0703 18.344 58.7463 19.34 58.4103 20.396C58.0743 21.452 57.7503 22.484 57.4383 23.492C57.1263 24.5 56.8623 25.376 56.6463 26.12C56.4303 26.864 56.2863 27.368 56.2143 27.632C56.1423 27.944 56.0103 28.232 55.8183 28.496C55.6263 28.76 55.3863 28.916 55.0983 28.964C54.6663 29.012 54.1623 29.06 53.5863 29.108C53.0343 29.156 52.5063 29.132 52.0023 29.036C51.5223 28.94 51.1623 28.688 50.9223 28.28C50.8023 28.016 50.7183 27.452 50.6703 26.588C50.5983 25.724 50.5743 24.692 50.5983 23.492C50.6223 22.292 50.6703 21.056 50.7423 19.784C50.7903 18.488 50.8503 17.288 50.9223 16.184C50.9943 15.056 51.0783 14.156 51.1743 13.484C51.2463 12.908 51.3543 12.392 51.4983 11.936C51.6903 11.312 52.1463 10.988 52.8663 10.964C53.6823 10.964 54.4023 11.216 55.0263 11.72C55.6503 12.2 56.0463 12.848 56.2143 13.664C56.3103 14.12 56.3703 14.576 56.3943 15.032C56.4183 15.464 56.4183 15.908 56.3943 16.364C56.3943 17.06 56.3823 17.756 56.3583 18.452C56.3583 19.124 56.3463 19.796 56.3223 20.468C56.5863 20.204 56.7663 19.928 56.8623 19.64C56.9823 19.328 57.1023 19.028 57.2223 18.74C57.5823 17.684 57.9663 16.64 58.3743 15.608C58.7823 14.552 59.2383 13.52 59.7423 12.512C60.0063 12.008 60.2583 11.696 60.4983 11.576C60.7383 11.456 61.1583 11.444 61.7583 11.54C62.9583 11.756 63.7983 12.44 64.2783 13.592C64.5903 14.336 64.7463 15.092 64.7463 15.86C64.7703 16.628 64.8183 17.432 64.8903 18.272C64.8903 18.344 64.9143 18.404 64.9623 18.452C65.0343 18.476 65.1063 18.464 65.1783 18.416C65.3703 18.248 65.5383 18.008 65.6823 17.696C65.8503 17.384 65.9703 17.18 66.0423 17.084C66.1623 16.916 66.3423 16.88 66.5823 16.976ZM86.2707 21.008C86.5827 21.008 86.8227 21.14 86.9907 21.404C87.1827 21.668 87.2187 21.944 87.0987 22.232C86.8347 22.976 86.5587 23.72 86.2707 24.464C86.0067 25.184 85.6707 25.892 85.2627 26.588C85.1907 26.708 85.0947 26.84 84.9747 26.984C84.5427 27.56 84.0747 28.064 83.5707 28.496C83.0667 28.928 82.4067 29.108 81.5907 29.036C80.6067 28.94 79.7427 28.676 78.9987 28.244C78.2547 27.812 77.6787 27.128 77.2707 26.192C77.1747 26 77.1027 25.844 77.0547 25.724C77.0067 25.604 76.9347 25.412 76.8387 25.148C76.3827 26.3 75.8067 27.176 75.1107 27.776C74.4147 28.376 73.6587 28.748 72.8427 28.892C72.0507 29.012 71.2707 28.964 70.5027 28.748C69.7347 28.508 69.0387 28.136 68.4147 27.632C67.8147 27.128 67.3587 26.528 67.0467 25.832C66.1587 23.744 65.8227 21.68 66.0387 19.64C66.2547 17.6 66.8547 15.8 67.8387 14.24C68.2947 13.472 68.8587 12.824 69.5307 12.296C70.2267 11.768 71.0427 11.432 71.9787 11.288C72.8667 11.168 73.7067 11.252 74.4987 11.54C75.2907 11.804 76.0347 12.2 76.7307 12.728C76.8267 12.8 76.9107 12.884 76.9827 12.98C77.0787 13.052 77.1987 13.148 77.3427 13.268C77.4627 13.004 77.5707 12.764 77.6667 12.548C77.7867 12.332 77.9067 12.128 78.0267 11.936C78.2907 11.48 78.7107 11.3 79.2867 11.396C79.8627 11.492 80.3547 11.768 80.7627 12.224C81.1947 12.68 81.4347 13.208 81.4827 13.808C81.5307 14.36 81.5427 14.912 81.5187 15.464C81.4947 16.016 81.4587 16.568 81.4107 17.12C81.3627 17.864 81.2787 18.728 81.1587 19.712C81.0387 20.696 80.9307 21.68 80.8347 22.664C80.7627 23.648 80.7627 24.524 80.8347 25.292C80.8827 25.82 80.9787 26.312 81.1227 26.768C81.2187 27.176 81.3387 27.404 81.4827 27.452C81.6267 27.476 81.8547 27.344 82.1667 27.056C82.7187 26.576 83.1867 26.06 83.5707 25.508C83.9787 24.932 84.3267 24.32 84.6147 23.672C84.9027 23.024 85.1547 22.352 85.3707 21.656C85.5147 21.224 85.8147 21.008 86.2707 21.008ZM76.5867 21.476C76.6107 19.796 76.6827 18.38 76.8027 17.228C76.9227 16.076 76.7667 15.176 76.3347 14.528C75.8307 13.784 75.3507 13.292 74.8947 13.052C74.4627 12.788 73.9947 12.704 73.4907 12.8C72.7467 12.944 72.1227 13.34 71.6187 13.988C71.1147 14.636 70.7307 15.44 70.4667 16.4C70.2027 17.336 70.0467 18.332 69.9987 19.388C69.9507 20.444 69.9987 21.476 70.1427 22.484C70.2867 23.492 70.5147 24.38 70.8267 25.148C71.1627 25.892 71.5707 26.432 72.0507 26.768C72.5307 27.104 73.0707 27.128 73.6707 26.84C74.3427 26.504 74.8467 26.048 75.1827 25.472C75.5427 24.896 75.8667 24.26 76.1547 23.564C76.2747 23.228 76.3707 22.892 76.4427 22.556C76.5147 22.22 76.5627 21.86 76.5867 21.476ZM98.482 19.496C98.77 19.592 98.974 19.784 99.094 20.072C99.214 20.336 99.214 20.6 99.094 20.864C98.95 21.296 98.698 21.86 98.338 22.556C97.978 23.228 97.594 23.924 97.186 24.644C96.778 25.364 96.406 25.988 96.07 26.516C95.758 27.044 95.566 27.356 95.494 27.452C94.726 28.292 93.898 28.82 93.01 29.036C92.146 29.252 91.282 29.24 90.418 29C89.578 28.76 88.81 28.364 88.114 27.812C87.442 27.236 86.926 26.576 86.566 25.832C86.086 24.896 85.726 23.924 85.486 22.916C85.246 21.908 85.078 20.876 84.982 19.82C84.934 19.316 84.922 18.812 84.946 18.308C84.97 17.78 84.982 17.264 84.982 16.76C84.958 14.984 85.042 13.232 85.234 11.504C85.402 9.752 85.69 8.012 86.098 6.284C86.29 5.516 86.542 4.784 86.854 4.088C87.19 3.368 87.598 2.696 88.078 2.072C88.678 1.304 89.35 0.811999 90.094 0.595999C90.862 0.355999 91.606 0.391999 92.326 0.704C93.046 1.016 93.658 1.592 94.162 2.432C94.426 2.84 94.618 3.26 94.738 3.692C94.858 4.124 94.93 4.568 94.954 5.024C95.194 7.832 94.642 10.46 93.298 12.908C92.89 13.676 92.458 14.42 92.002 15.14C91.57 15.86 91.102 16.568 90.598 17.264C90.478 17.384 90.37 17.516 90.274 17.66C90.202 17.804 90.166 17.972 90.166 18.164C90.19 19.388 90.202 20.612 90.202 21.836C90.226 23.036 90.406 24.224 90.742 25.4C90.79 25.64 90.85 25.88 90.922 26.12C91.018 26.336 91.138 26.552 91.282 26.768C91.474 27.032 91.63 27.176 91.75 27.2C91.894 27.224 92.11 27.128 92.398 26.912C92.878 26.552 93.31 26.156 93.694 25.724C94.078 25.268 94.438 24.8 94.774 24.32C95.206 23.744 95.626 23.072 96.034 22.304C96.442 21.536 96.802 20.792 97.114 20.072C97.234 19.808 97.426 19.616 97.69 19.496C97.954 19.376 98.218 19.376 98.482 19.496ZM92.362 2.936C91.57 4.784 91.054 6.68 90.814 8.624C90.598 10.544 90.454 12.476 90.382 14.42C90.982 13.604 91.462 12.74 91.822 11.828C92.182 10.916 92.482 9.98 92.722 9.02C92.89 8.204 93.01 7.388 93.082 6.572C93.178 5.732 93.13 4.892 92.938 4.052C92.89 3.86 92.83 3.668 92.758 3.476C92.71 3.284 92.578 3.104 92.362 2.936Z" fill="black"/>
</svg>
