<svg width="110" height="34" viewBox="0 0 110 34" fill="none" xmlns="http://www.w3.org/2000/svg">
<path d="M20.8292 9.75441C20.9087 10.5754 20.9749 11.3963 21.0278 12.2173C21.0808 13.0383 21.1338 13.899 21.1867 14.7994C21.4251 14.0579 21.6369 13.3561 21.8223 12.694C22.0342 12.0319 22.246 11.3699 22.4579 10.7078C22.8022 9.70144 23.1332 8.69509 23.451 7.68875C23.7953 6.6824 24.166 5.6893 24.5633 4.70944C24.7222 4.28571 24.9208 3.88847 25.1591 3.51772C25.424 3.14696 25.6888 2.7762 25.9536 2.40544C26.2714 1.92875 26.6554 1.65068 27.1056 1.57123C27.5558 1.4653 28.0325 1.49178 28.5357 1.65068C29.648 2.04792 30.5881 2.6173 31.3561 3.35882C32.1241 4.10034 32.6273 5.0802 32.8656 6.2984C33.051 7.14585 33.2099 8.00654 33.3423 8.88047C33.5012 9.72792 33.6071 10.5754 33.6601 11.4228C33.766 13.8063 33.7793 16.1897 33.6998 18.5732C33.6204 20.9301 33.4747 23.2871 33.2629 25.6441C33.1834 26.4385 33.1172 27.2463 33.0642 28.0672C33.0378 28.8617 32.998 29.6562 32.9451 30.4507C32.8921 31.5365 32.6405 32.2912 32.1903 32.715C31.7401 33.1387 30.8794 33.1387 29.6082 32.715C28.443 32.3177 27.5956 31.7616 27.0659 31.0465C26.5362 30.305 26.2714 29.2854 26.2714 27.9878C26.2979 26.4783 26.3509 24.9687 26.4303 23.4592C26.5098 21.9232 26.5892 20.4005 26.6687 18.891C26.7481 17.4344 26.8408 16.0043 26.9467 14.6007C27.0791 13.1707 27.1983 11.7274 27.3042 10.2708C27.3042 10.0854 27.291 9.88682 27.2645 9.67496C27.238 9.46309 27.1851 9.23799 27.1056 8.99964C26.8408 9.63523 26.576 10.2708 26.3111 10.9064C26.0728 11.542 25.8477 12.1776 25.6358 12.8132C25.0267 14.4551 24.5103 16.1367 24.0866 17.8581C23.6629 19.553 23.2656 21.2479 22.8949 22.9428C22.5771 24.2934 22.246 25.6308 21.9018 26.955C21.5575 28.2526 21.2397 29.5767 20.9484 30.9274C20.7365 31.8013 20.4187 32.3177 19.995 32.4766C19.5713 32.662 18.9489 32.6223 18.128 32.3574C17.2011 32.0661 16.4331 31.6027 15.824 30.9671C15.2414 30.305 14.8706 29.4708 14.7117 28.4645C14.6058 27.6435 14.4998 26.8225 14.3939 26.0016C14.3145 25.1806 14.2747 24.3596 14.2747 23.5387C14.2747 21.0228 14.288 18.5202 14.3145 16.0308C14.3674 13.5414 14.4071 11.0388 14.4336 8.52296C14.4336 8.17868 14.4336 7.82116 14.4336 7.4504C14.4336 7.05316 14.4336 6.6162 14.4336 6.13951C14.1423 6.43082 13.9437 6.72213 13.8378 7.01344C13.7318 7.27827 13.6524 7.54309 13.5994 7.80792C13.3081 8.84075 13.03 9.88682 12.7652 10.9461C12.5004 12.0054 12.262 13.0647 12.0502 14.1241C11.547 16.6134 11.0438 19.1161 10.5407 21.6319C10.0375 24.1478 9.53432 26.6636 9.03114 29.1795C8.97818 29.3914 8.92521 29.6032 8.87225 29.8151C8.84576 30.027 8.7928 30.2256 8.71335 30.411C8.55445 30.9671 8.32935 31.3379 8.03804 31.5232C7.77321 31.7086 7.37597 31.7616 6.84632 31.6821C5.73404 31.5497 4.78066 31.179 3.98618 30.5699C3.1917 29.9343 2.59583 29.0736 2.19859 27.9878C1.98673 27.4316 1.82783 26.8623 1.7219 26.2796C1.58949 25.6705 1.48356 25.0614 1.40411 24.4523C1.29818 23.4195 1.20549 22.3734 1.12604 21.3141C1.02011 20.2283 0.967144 19.1558 0.967144 18.0965C0.914178 16.1103 0.887695 14.1373 0.887695 12.1776C0.887695 10.1914 0.887695 8.20516 0.887695 6.21896C0.887695 5.79523 0.927419 5.37151 1.00687 4.94778C1.05983 4.52406 1.12604 4.08709 1.20549 3.63689C1.23197 3.34558 1.32466 3.01454 1.48356 2.64378C1.82783 1.8493 2.43694 1.51827 3.31087 1.65068C4.3437 1.78309 5.21763 2.19358 5.93266 2.88213C6.67418 3.57068 7.12438 4.45785 7.28328 5.54365C7.54811 7.05316 7.69376 8.56268 7.72025 10.0722C7.77321 11.4493 7.7997 12.8264 7.7997 14.2035C7.7997 15.5541 7.7997 16.918 7.7997 18.2951C7.7997 18.454 7.7997 18.6261 7.7997 18.8115C7.82618 18.9704 7.8659 19.1425 7.91887 19.3279C7.99832 19.0366 8.07776 18.7453 8.15721 18.454C8.23666 18.1627 8.30287 17.8714 8.35583 17.5801C8.67363 16.0176 8.97818 14.4683 9.26949 12.9323C9.58728 11.3699 9.89183 9.80737 10.1831 8.24489C10.3685 7.26502 10.6466 6.33813 11.0174 5.4642C11.3881 4.56378 11.8383 3.70309 12.368 2.88213C13.2419 1.55799 14.4601 1.17399 16.0226 1.73013C17.6116 2.33923 18.8033 3.43827 19.5978 5.02723C19.9685 5.76875 20.2466 6.53675 20.432 7.33123C20.6438 8.12571 20.7762 8.93344 20.8292 9.75441Z" fill="#27272A"/>
<path d="M56.8239 22.9825C57.1152 22.9825 57.3536 23.1017 57.539 23.3401C57.7508 23.5784 57.817 23.8432 57.7376 24.1345C57.6052 24.7436 57.3801 25.4852 57.0623 26.3591C56.771 27.233 56.3737 28.0937 55.8706 28.9412C55.3674 29.7621 54.7318 30.4639 53.9638 31.0465C53.1958 31.6292 52.2821 31.9602 51.2228 32.0396C50.3224 32.0661 49.5544 31.894 48.9188 31.5232C48.2832 31.1525 47.7536 30.5831 47.3299 29.8151C47.065 29.3384 46.8532 28.8352 46.6943 28.3056C46.5619 27.7759 46.4162 27.1801 46.2573 26.518C45.8336 27.3125 45.4364 28.054 45.0656 28.7425C44.7213 29.4311 44.2844 30.0402 43.7547 30.5699C43.1986 31.126 42.5365 31.5232 41.7685 31.7616C40.6032 32.1059 39.5704 32.1191 38.67 31.8013C37.7961 31.457 37.0281 30.6625 36.366 29.4179C36.1277 28.9412 35.9423 28.2526 35.8099 27.3522C35.651 26.4518 35.5583 25.4587 35.5318 24.3729C35.4788 23.2606 35.4656 22.1351 35.4921 20.9963C35.4921 19.8311 35.5318 18.7453 35.6112 17.739C35.6642 16.7326 35.7437 15.8852 35.8496 15.1966C35.8761 14.8788 35.9423 14.561 36.0482 14.2432C36.2601 13.5282 36.5117 13.0515 36.803 12.8132C37.0943 12.5748 37.5445 12.4556 38.1536 12.4556C39.6366 12.5086 40.5238 13.131 40.8151 14.3227C40.8946 14.6405 40.9343 14.9715 40.9343 15.3158C40.9343 15.766 40.9078 16.4281 40.8548 17.302C40.8019 18.1759 40.7489 19.1425 40.6959 20.2019C40.643 21.2612 40.59 22.3205 40.537 23.3798C40.5106 24.4126 40.4973 25.3527 40.4973 26.2002C40.4973 27.0212 40.5503 27.617 40.6562 27.9878C40.7357 28.2791 40.8151 28.5969 40.8946 28.9412C40.974 29.259 41.1461 29.4443 41.411 29.4973C41.9141 29.4443 42.4173 29.1927 42.9205 28.7425C43.4237 28.2659 43.8871 27.6965 44.3108 27.0344C44.7346 26.3723 45.0921 25.697 45.3834 25.0085C45.7012 24.2934 45.9263 23.6579 46.0587 23.1017C46.1381 22.9163 46.1779 22.731 46.1779 22.5456C46.1779 22.3602 46.1779 22.1748 46.1779 21.9894C46.2308 20.8507 46.3235 19.5795 46.4559 18.1759C46.6148 16.7459 46.8135 15.4614 47.0518 14.3227C47.2637 13.4752 47.555 12.9191 47.9257 12.6543C48.323 12.363 48.9321 12.2967 49.753 12.4556C50.3092 12.5881 50.7197 12.7734 50.9845 13.0118C51.2758 13.2501 51.4347 13.6871 51.4612 14.3227C51.5141 14.9053 51.5141 15.5806 51.4612 16.3486C51.4347 17.0901 51.3817 17.8449 51.3023 18.6129C51.2493 19.3544 51.1964 20.0032 51.1434 20.5594C51.0639 21.195 50.9845 21.9497 50.905 22.8236C50.8256 23.6711 50.7594 24.545 50.7064 25.4454C50.6535 26.3194 50.6535 27.1403 50.7064 27.9083C50.7594 28.6763 50.905 29.2987 51.1434 29.7754C51.2228 30.0137 51.4215 30.1461 51.7392 30.1726C52.057 30.1991 52.2954 30.1461 52.4543 30.0137C52.878 29.6694 53.2488 29.2987 53.5666 28.9014C53.9108 28.5042 54.2021 28.0672 54.4405 27.5905C54.7848 26.9814 55.0761 26.3591 55.3144 25.7235C55.5792 25.0879 55.7779 24.4259 55.9103 23.7373C56.0162 23.2341 56.3208 22.9825 56.8239 22.9825Z" fill="#27272A"/>
<path d="M73.2632 18.7321C73.3956 18.785 73.4618 18.8645 73.4618 18.9704C73.4618 19.0763 73.4354 19.169 73.3824 19.2485C73.2235 19.7781 73.0381 20.2945 72.8262 20.7977C72.6409 21.3009 72.4158 21.7908 72.1509 22.2675C71.9656 22.6118 71.7405 22.9163 71.4756 23.1812C71.2373 23.4195 70.893 23.5254 70.4428 23.499C69.9131 23.4725 69.4232 23.3665 68.973 23.1812C68.5228 22.9958 68.1653 22.6515 67.9005 22.1483C67.768 21.857 67.6489 21.5657 67.5429 21.2744C67.4635 20.9831 67.4105 20.6785 67.384 20.3607C67.2516 19.6457 67.1325 18.9307 67.0265 18.2156C66.9471 17.4741 66.8544 16.7459 66.7485 16.0308C66.5366 16.0573 66.4042 16.1367 66.3512 16.2692C66.2982 16.4016 66.2585 16.534 66.232 16.6664C65.9672 17.3285 65.6627 18.1759 65.3184 19.2087C64.9741 20.2416 64.6166 21.3406 64.2458 22.5059C63.8751 23.6711 63.5176 24.8099 63.1733 25.9221C62.829 27.0344 62.5377 28.001 62.2993 28.822C62.061 29.643 61.9021 30.1991 61.8227 30.4904C61.7432 30.8347 61.5976 31.1525 61.3857 31.4438C61.1738 31.7351 60.909 31.9072 60.5912 31.9602C60.1145 32.0132 59.5584 32.0661 58.9228 32.1191C58.3137 32.1721 57.7311 32.1456 57.1749 32.0396C56.6453 31.9337 56.248 31.6556 55.9832 31.2054C55.8508 30.9141 55.7581 30.2918 55.7051 29.3384C55.6257 28.385 55.5992 27.2463 55.6257 25.9221C55.6522 24.598 55.7051 23.2341 55.7846 21.8305C55.8376 20.4005 55.9038 19.0763 55.9832 17.8581C56.0627 16.6134 56.1553 15.6203 56.2613 14.8788C56.3407 14.2432 56.4599 13.6739 56.6188 13.1707C56.8307 12.4821 57.3338 12.1246 58.1283 12.0981C59.0287 12.0981 59.8232 12.3762 60.5118 12.9323C61.2003 13.462 61.6373 14.177 61.8227 15.0774C61.9286 15.5806 61.9948 16.0838 62.0213 16.587C62.0478 17.0636 62.0478 17.5536 62.0213 18.0567C62.0213 18.8247 62.008 19.5927 61.9816 20.3607C61.9816 21.1023 61.9683 21.8438 61.9418 22.5853C62.2331 22.294 62.4318 21.9894 62.5377 21.6716C62.6701 21.3274 62.8025 20.9963 62.9349 20.6785C63.3322 19.5133 63.7559 18.3613 64.2061 17.2225C64.6563 16.0573 65.1595 14.9185 65.7156 13.8063C66.0069 13.2501 66.285 12.9059 66.5498 12.7734C66.8147 12.641 67.2781 12.6278 67.9402 12.7337C69.2643 12.9721 70.1912 13.7268 70.7209 14.998C71.0651 15.819 71.2373 16.6532 71.2373 17.5006C71.2638 18.3481 71.3167 19.2352 71.3962 20.1621C71.3962 20.2416 71.4227 20.3078 71.4756 20.3607C71.5551 20.3872 71.6345 20.374 71.714 20.321C71.9258 20.1356 72.1112 19.8708 72.2701 19.5265C72.4555 19.1823 72.5879 18.9572 72.6674 18.8512C72.7998 18.6659 72.9984 18.6261 73.2632 18.7321Z" fill="#27272A"/>
<path d="M94.9883 23.1812C95.3326 23.1812 95.5974 23.3268 95.7828 23.6181C95.9946 23.9094 96.0344 24.214 95.9019 24.5318C95.6106 25.3527 95.3061 26.1737 94.9883 26.9947C94.697 27.7892 94.3262 28.5704 93.876 29.3384C93.7966 29.4708 93.6906 29.6165 93.5582 29.7754C93.0815 30.411 92.5651 30.9671 92.009 31.4438C91.4528 31.9205 90.7246 32.1191 89.8241 32.0396C88.7383 31.9337 87.785 31.6424 86.964 31.1657C86.143 30.689 85.5075 29.9343 85.0573 28.9014C84.9513 28.6896 84.8719 28.5174 84.8189 28.385C84.7659 28.2526 84.6865 28.0407 84.5806 27.7494C84.0774 29.0206 83.4418 29.9872 82.6738 30.6493C81.9058 31.3114 81.0716 31.7219 80.1712 31.8807C79.2972 32.0132 78.4366 31.9602 77.5891 31.7219C76.7417 31.457 75.9737 31.0465 75.2851 30.4904C74.623 29.9343 74.1199 29.2722 73.7756 28.5042C72.7957 26.2002 72.425 23.9227 72.6633 21.6716C72.9017 19.4206 73.5637 17.4344 74.6495 15.713C75.1527 14.8656 75.775 14.1505 76.5166 13.5679C77.2846 12.9853 78.185 12.6145 79.2178 12.4556C80.1977 12.3232 81.1246 12.4159 81.9985 12.7337C82.8724 13.025 83.6934 13.462 84.4614 14.0446C84.5673 14.1241 84.66 14.2167 84.7395 14.3227C84.8454 14.4021 84.9778 14.5081 85.1367 14.6405C85.2691 14.3492 85.3883 14.0843 85.4942 13.846C85.6266 13.6076 85.759 13.3825 85.8915 13.1707C86.1828 12.6675 86.6462 12.4689 87.2818 12.5748C87.9174 12.6807 88.4603 12.9853 88.9105 13.4885C89.3872 13.9916 89.652 14.5743 89.705 15.2363C89.7579 15.8454 89.7712 16.4545 89.7447 17.0636C89.7182 17.6727 89.6785 18.2819 89.6255 18.891C89.5726 19.7119 89.4799 20.6653 89.3475 21.7511C89.215 22.8369 89.0959 23.9227 88.9899 25.0085C88.9105 26.0943 88.9105 27.0609 88.9899 27.9083C89.0429 28.491 89.1488 29.0339 89.3077 29.537C89.4137 29.9872 89.5461 30.2388 89.705 30.2918C89.8639 30.3183 90.1155 30.1726 90.4597 29.8548C91.0688 29.3252 91.5852 28.7558 92.009 28.1467C92.4592 27.5111 92.8432 26.8358 93.161 26.1207C93.4788 25.4057 93.7568 24.6642 93.9952 23.8962C94.1541 23.4195 94.4851 23.1812 94.9883 23.1812ZM84.3025 23.6976C84.329 21.8438 84.4084 20.2813 84.5408 19.0101C84.6732 17.739 84.5011 16.7459 84.0244 16.0308C83.4683 15.2099 82.9386 14.667 82.4355 14.4021C81.9588 14.1108 81.4424 14.0181 80.8862 14.1241C80.0652 14.283 79.3767 14.7199 78.8206 15.435C78.2644 16.15 77.8407 17.0372 77.5494 18.0965C77.2581 19.1293 77.0859 20.2283 77.033 21.3936C76.98 22.5588 77.033 23.6976 77.1919 24.8099C77.3508 25.9221 77.6024 26.902 77.9466 27.7494C78.3174 28.5704 78.7676 29.1663 79.2972 29.537C79.8269 29.9078 80.4228 29.9343 81.0848 29.6165C81.8264 29.2457 82.3825 28.7425 82.7533 28.107C83.1505 27.4714 83.508 26.7696 83.8258 26.0016C83.9582 25.6308 84.0641 25.2601 84.1436 24.8893C84.223 24.5185 84.276 24.1213 84.3025 23.6976Z" fill="#27272A"/>
<path d="M108.463 21.5127C108.781 21.6187 109.006 21.8305 109.138 22.1483C109.271 22.4396 109.271 22.731 109.138 23.0223C108.979 23.499 108.701 24.1213 108.304 24.8893C107.907 25.6308 107.483 26.3988 107.033 27.1933C106.583 27.9878 106.172 28.6763 105.801 29.259C105.457 29.8416 105.245 30.1859 105.166 30.2918C104.318 31.2187 103.405 31.8013 102.425 32.0396C101.471 32.278 100.518 32.2647 99.5646 31.9999C98.6377 31.7351 97.7903 31.2981 97.0223 30.689C96.2808 30.0534 95.7114 29.3252 95.3141 28.5042C94.7845 27.4714 94.3872 26.3988 94.1224 25.2865C93.8576 24.1743 93.6722 23.0355 93.5663 21.8703C93.5133 21.3141 93.5001 20.758 93.5266 20.2019C93.553 19.6192 93.5663 19.0499 93.5663 18.4937C93.5398 16.534 93.6325 14.6007 93.8443 12.694C94.0297 10.7607 94.3475 8.84075 94.7977 6.93399C95.0096 6.08654 95.2877 5.27882 95.6319 4.51082C96.0027 3.71633 96.4529 2.97482 96.9826 2.28627C97.6446 1.43882 98.3861 0.895921 99.2071 0.657577C100.055 0.392749 100.876 0.432474 101.67 0.77675C102.464 1.12102 103.14 1.75661 103.696 2.68351C103.987 3.13371 104.199 3.59716 104.332 4.07385C104.464 4.55054 104.543 5.04047 104.57 5.54365C104.835 8.64213 104.226 11.542 102.743 14.2432C102.292 15.0907 101.816 15.9116 101.312 16.7061C100.836 17.5006 100.319 18.2819 99.7632 19.0499C99.6308 19.1823 99.5117 19.3279 99.4057 19.4868C99.3263 19.6457 99.2866 19.8311 99.2866 20.043C99.313 21.3936 99.3263 22.7442 99.3263 24.0948C99.3528 25.419 99.5514 26.7299 99.9221 28.0275C99.9751 28.2923 100.041 28.5572 100.121 28.822C100.227 29.0603 100.359 29.2987 100.518 29.537C100.73 29.8283 100.902 29.9872 101.034 30.0137C101.193 30.0402 101.432 29.9343 101.749 29.6959C102.279 29.2987 102.756 28.8617 103.18 28.385C103.603 27.8819 104 27.3654 104.371 26.8358C104.848 26.2002 105.311 25.4587 105.762 24.6112C106.212 23.7638 106.609 22.9428 106.953 22.1483C107.086 21.857 107.298 21.6452 107.589 21.5127C107.88 21.3803 108.172 21.3803 108.463 21.5127ZM101.71 3.23965C100.836 5.27882 100.266 7.37096 100.002 9.51606C99.7632 11.6347 99.6044 13.7665 99.5249 15.9116C100.187 15.0112 100.717 14.0579 101.114 13.0515C101.511 12.0452 101.842 11.0123 102.107 9.95303C102.292 9.05261 102.425 8.1522 102.504 7.25178C102.61 6.32489 102.557 5.39799 102.345 4.47109C102.292 4.25923 102.226 4.04737 102.147 3.83551C102.094 3.62365 101.948 3.42503 101.71 3.23965Z" fill="#27272A"/>
</svg>
