<svg width="1154" height="347" viewBox="0 0 1154 347" fill="none" xmlns="http://www.w3.org/2000/svg">
<path d="M212.37 99.2759C213.215 108.012 213.92 116.748 214.484 125.485C215.047 134.221 215.611 143.38 216.175 152.962C218.711 145.071 220.965 137.603 222.938 130.557C225.193 123.512 227.447 116.467 229.702 109.421C233.365 98.7123 236.888 88.0033 240.27 77.2943C243.933 66.5854 247.879 56.0174 252.106 45.5902C253.797 41.0812 255.91 36.854 258.447 32.9086C261.265 28.9632 264.083 25.0178 266.901 21.0724C270.283 15.9997 274.369 13.0407 279.16 12.1952C283.951 11.068 289.024 11.3498 294.378 13.0407C306.214 17.2679 316.219 23.3269 324.391 31.2177C332.564 39.1085 337.918 49.5356 340.455 62.4991C342.427 71.5172 344.118 80.6761 345.527 89.976C347.218 98.9941 348.346 108.012 348.909 117.03C350.036 142.393 350.177 167.757 349.332 193.12C348.486 218.202 346.936 243.283 344.682 268.365C343.836 276.819 343.132 285.414 342.568 294.151C342.287 302.605 341.864 311.059 341.3 319.514C340.737 331.068 338.059 339.1 333.268 343.609C328.478 348.118 319.319 348.118 305.792 343.609C293.392 339.382 284.374 333.464 278.737 325.855C273.101 317.964 270.283 307.114 270.283 293.305C270.565 277.242 271.128 261.178 271.974 245.115C272.819 228.77 273.665 212.565 274.51 196.502C275.356 181.002 276.342 165.784 277.469 150.848C278.878 135.63 280.146 120.271 281.274 104.771C281.274 102.799 281.133 100.685 280.851 98.4304C280.569 96.1759 280.006 93.7805 279.16 91.2441C276.342 98.0077 273.524 104.771 270.706 111.535C268.169 118.298 265.774 125.062 263.519 131.825C257.038 149.298 251.542 167.193 247.033 185.511C242.524 203.547 238.297 221.583 234.352 239.619C230.97 253.992 227.447 268.224 223.784 282.314C220.12 296.123 216.738 310.214 213.638 324.587C211.384 333.886 208.002 339.382 203.493 341.073C198.984 343.045 192.361 342.623 183.625 339.804C173.761 336.705 165.589 331.773 159.107 325.009C152.907 317.964 148.962 309.087 147.271 298.378C146.144 289.642 145.016 280.905 143.889 272.169C143.044 263.433 142.621 254.697 142.621 245.96C142.621 219.188 142.762 192.556 143.044 166.066C143.607 139.575 144.03 112.944 144.312 86.1715C144.312 82.5079 144.312 78.7034 144.312 74.758C144.312 70.5308 144.312 65.8809 144.312 60.8082C141.212 63.9082 139.098 67.0081 137.971 70.1081C136.844 72.9262 135.998 75.7444 135.435 78.5625C132.335 89.5533 129.376 100.685 126.558 111.958C123.739 123.23 121.203 134.503 118.949 145.775C113.594 172.266 108.24 198.897 102.885 225.67C97.5307 252.442 92.1762 279.214 86.8217 305.987C86.2581 308.241 85.6945 310.496 85.1308 312.75C84.849 315.005 84.2854 317.118 83.44 319.091C81.7491 325.009 79.3536 328.955 76.2537 330.927C73.4355 332.9 69.2083 333.464 63.572 332.618C51.7358 331.209 41.5905 327.264 33.1361 320.782C24.6816 314.018 18.3408 304.86 14.1136 293.305C11.8591 287.387 10.1682 281.328 9.04094 275.128C7.63187 268.646 6.50461 262.165 5.65917 255.683C4.53191 244.692 3.54556 233.56 2.70012 222.288C1.57286 210.733 1.00923 199.32 1.00923 188.047C0.445602 166.911 0.163788 145.916 0.163788 125.062C0.163788 103.926 0.163788 82.7897 0.163788 61.6536C0.163788 57.1446 0.58651 52.6356 1.43195 48.1265C1.99558 43.6175 2.70012 38.9676 3.54556 34.1767C3.82738 31.0768 4.81373 27.5541 6.50461 23.6087C10.1682 15.1543 16.6499 11.6316 25.9498 13.0407C36.9406 14.4497 46.2404 18.8178 53.8494 26.145C61.7402 33.4722 66.5311 42.913 68.222 54.4674C71.0401 70.5308 72.5901 86.5942 72.8719 102.658C73.4355 117.312 73.7174 131.966 73.7174 146.621C73.7174 160.993 73.7174 175.507 73.7174 190.161C73.7174 191.852 73.7174 193.684 73.7174 195.656C73.9992 197.347 74.4219 199.179 74.9855 201.152C75.831 198.052 76.6764 194.952 77.5218 191.852C78.3673 188.752 79.0718 185.652 79.6355 182.552C83.0172 165.925 86.2581 149.439 89.3581 133.094C92.7398 116.467 95.9807 99.8395 99.0807 83.2124C101.053 72.7853 104.012 62.9218 107.958 53.6219C111.903 44.0402 116.694 34.8813 122.33 26.145C131.63 12.0543 144.594 7.968 161.221 13.8861C178.13 20.3678 190.811 32.0631 199.266 48.972C203.211 56.8628 206.17 65.0354 208.143 73.4898C210.397 81.9443 211.806 90.5396 212.37 99.2759Z" fill="#27272A"/>
<path d="M595.405 240.042C598.505 240.042 601.042 241.31 603.014 243.847C605.269 246.383 605.973 249.201 605.128 252.301C603.719 258.783 601.324 266.674 597.942 275.974C594.842 285.273 590.615 294.432 585.26 303.45C579.906 312.187 573.142 319.655 564.969 325.855C556.797 332.055 547.074 335.577 535.802 336.423C526.22 336.705 518.047 334.873 511.284 330.927C504.52 326.982 498.884 320.923 494.375 312.75C491.557 307.678 489.302 302.323 487.611 296.687C486.202 291.051 484.652 284.71 482.961 277.664C478.452 286.119 474.225 294.01 470.28 301.337C466.616 308.664 461.966 315.146 456.33 320.782C450.412 326.7 443.366 330.927 435.194 333.464C422.794 337.127 411.803 337.268 402.222 333.886C392.922 330.223 384.749 321.768 377.704 308.523C375.167 303.45 373.195 296.123 371.786 286.542C370.095 276.96 369.108 266.392 368.827 254.837C368.263 243.001 368.122 231.024 368.404 218.906C368.404 206.506 368.827 194.952 369.672 184.243C370.236 173.534 371.081 164.516 372.208 157.189C372.49 153.807 373.195 150.425 374.322 147.043C376.576 139.434 379.254 134.362 382.354 131.825C385.454 129.289 390.244 128.021 396.726 128.021C412.508 128.585 421.949 135.207 425.049 147.889C425.894 151.271 426.317 154.793 426.317 158.457C426.317 163.248 426.035 170.293 425.471 179.593C424.908 188.893 424.344 199.179 423.78 210.452C423.217 221.724 422.653 232.997 422.09 244.269C421.808 255.26 421.667 265.265 421.667 274.283C421.667 283.019 422.23 289.36 423.358 293.305C424.203 296.405 425.049 299.787 425.894 303.45C426.739 306.832 428.571 308.805 431.389 309.369C436.744 308.805 442.098 306.128 447.453 301.337C452.807 296.264 457.739 290.205 462.248 283.16C466.757 276.114 470.562 268.928 473.662 261.601C477.043 253.992 479.439 247.228 480.848 241.31C481.693 239.338 482.116 237.365 482.116 235.392C482.116 233.42 482.116 231.447 482.116 229.474C482.68 217.356 483.666 203.829 485.075 188.893C486.766 173.675 488.88 160.007 491.416 147.889C493.67 138.871 496.77 132.953 500.716 130.135C504.943 127.035 511.425 126.33 520.161 128.021C526.079 129.43 530.447 131.403 533.265 133.939C536.365 136.475 538.056 141.125 538.338 147.889C538.902 154.089 538.902 161.275 538.338 169.448C538.056 177.338 537.493 185.37 536.647 193.543C536.083 201.434 535.52 208.338 534.956 214.256C534.111 221.02 533.265 229.051 532.42 238.351C531.574 247.369 530.87 256.669 530.306 266.251C529.743 275.551 529.743 284.287 530.306 292.46C530.87 300.632 532.42 307.255 534.956 312.328C535.802 314.864 537.915 316.273 541.297 316.555C544.679 316.837 547.215 316.273 548.906 314.864C553.415 311.2 557.36 307.255 560.742 303.028C564.406 298.8 567.506 294.151 570.042 289.078C573.706 282.596 576.806 275.974 579.342 269.21C582.16 262.446 584.274 255.401 585.683 248.074C586.81 242.719 590.051 240.042 595.405 240.042Z" fill="#27272A"/>
<path d="M770.343 194.811C771.752 195.375 772.456 196.22 772.456 197.347C772.456 198.475 772.175 199.461 771.611 200.306C769.92 205.943 767.947 211.438 765.693 216.792C763.72 222.147 761.325 227.361 758.507 232.433C756.534 236.097 754.138 239.338 751.32 242.156C748.784 244.692 745.12 245.819 740.33 245.538C734.693 245.256 729.48 244.128 724.689 242.156C719.898 240.183 716.094 236.519 713.275 231.165C711.866 228.065 710.598 224.965 709.471 221.865C708.625 218.765 708.062 215.524 707.78 212.143C706.371 204.534 705.103 196.925 703.975 189.316C703.13 181.425 702.144 173.675 701.016 166.066C698.762 166.348 697.353 167.193 696.789 168.602C696.226 170.011 695.803 171.42 695.521 172.829C692.703 179.875 689.462 188.893 685.798 199.884C682.135 210.874 678.33 222.57 674.385 234.97C670.44 247.369 666.635 259.487 662.971 271.324C659.308 283.16 656.208 293.446 653.672 302.182C651.135 310.918 649.444 316.837 648.599 319.937C647.754 323.6 646.204 326.982 643.949 330.082C641.694 333.182 638.876 335.014 635.495 335.577C630.422 336.141 624.504 336.705 617.74 337.268C611.259 337.832 605.059 337.55 599.141 336.423C593.504 335.295 589.277 332.336 586.459 327.546C585.05 324.446 584.063 317.823 583.5 307.678C582.654 297.532 582.373 285.414 582.654 271.324C582.936 257.233 583.5 242.719 584.345 227.783C584.909 212.565 585.613 198.475 586.459 185.511C587.304 172.266 588.291 161.698 589.418 153.807C590.263 147.043 591.532 140.984 593.222 135.63C595.477 128.303 600.831 124.498 609.286 124.216C618.868 124.216 627.322 127.176 634.649 133.094C641.976 138.73 646.626 146.339 648.599 155.921C649.726 161.275 650.431 166.63 650.713 171.984C650.994 177.057 650.994 182.27 650.713 187.625C650.713 195.797 650.572 203.97 650.29 212.143C650.29 220.033 650.149 227.924 649.867 235.815C652.967 232.715 655.081 229.474 656.208 226.092C657.617 222.429 659.026 218.906 660.435 215.524C664.662 203.124 669.171 190.866 673.962 178.748C678.753 166.348 684.108 154.23 690.026 142.393C693.126 136.475 696.085 132.812 698.903 131.403C701.721 129.994 706.653 129.853 713.698 130.98C727.789 133.516 737.652 141.548 743.289 155.075C746.952 163.811 748.784 172.689 748.784 181.707C749.066 190.725 749.629 200.165 750.475 210.029C750.475 210.874 750.757 211.579 751.32 212.143C752.166 212.424 753.011 212.283 753.857 211.72C756.111 209.747 758.084 206.929 759.775 203.265C761.747 199.602 763.157 197.206 764.002 196.079C765.411 194.106 767.525 193.684 770.343 194.811Z" fill="#27272A"/>
<path d="M1001.53 242.156C1005.19 242.156 1008.01 243.706 1009.98 246.806C1012.24 249.906 1012.66 253.147 1011.25 256.528C1008.15 265.265 1004.91 274.001 1001.53 282.737C998.429 291.191 994.483 299.505 989.692 307.678C988.847 309.087 987.72 310.637 986.311 312.328C981.238 319.091 975.743 325.009 969.824 330.082C963.906 335.155 956.156 337.268 946.575 336.423C935.02 335.295 924.875 332.195 916.139 327.123C907.403 322.05 900.639 314.018 895.848 303.028C894.721 300.773 893.875 298.941 893.312 297.532C892.748 296.123 891.903 293.869 890.775 290.769C885.421 304.296 878.657 314.582 870.485 321.627C862.312 328.673 853.435 333.041 843.853 334.732C834.553 336.141 825.395 335.577 816.376 333.041C807.358 330.223 799.186 325.855 791.859 319.937C784.813 314.018 779.459 306.973 775.795 298.8C765.368 274.283 761.423 250.047 763.959 226.092C766.495 202.138 773.541 181.002 785.095 162.684C790.45 153.666 797.072 146.057 804.963 139.857C813.136 133.657 822.717 129.712 833.708 128.021C844.135 126.612 853.999 127.598 863.299 130.98C872.598 134.08 881.335 138.73 889.507 144.93C890.635 145.775 891.621 146.762 892.466 147.889C893.594 148.734 895.003 149.862 896.694 151.271C898.103 148.171 899.371 145.353 900.498 142.816C901.907 140.28 903.316 137.884 904.725 135.63C907.825 130.275 912.757 128.162 919.521 129.289C926.284 130.416 932.061 133.657 936.852 139.012C941.925 144.366 944.743 150.566 945.307 157.611C945.87 164.093 946.011 170.575 945.729 177.057C945.447 183.538 945.025 190.02 944.461 196.502C943.898 205.238 942.911 215.383 941.502 226.938C940.093 238.492 938.825 250.047 937.698 261.601C936.852 273.155 936.852 283.442 937.698 292.46C938.261 298.66 939.388 304.437 941.079 309.791C942.207 314.582 943.616 317.259 945.307 317.823C946.997 318.105 949.675 316.555 953.338 313.173C959.82 307.537 965.315 301.478 969.824 294.996C974.615 288.232 978.702 281.046 982.083 273.437C985.465 265.828 988.424 257.937 990.961 249.765C992.651 244.692 996.174 242.156 1001.53 242.156ZM887.816 247.651C888.098 227.924 888.944 211.297 890.353 197.77C891.762 184.243 889.93 173.675 884.857 166.066C878.939 157.33 873.303 151.552 867.949 148.734C862.876 145.634 857.38 144.648 851.462 145.775C842.726 147.466 835.399 152.116 829.481 159.725C823.563 167.334 819.054 176.775 815.954 188.047C812.854 199.038 811.022 210.733 810.458 223.133C809.895 235.533 810.458 247.651 812.149 259.487C813.84 271.324 816.517 281.751 820.181 290.769C824.126 299.505 828.917 305.846 834.553 309.791C840.19 313.737 846.531 314.018 853.576 310.637C861.467 306.691 867.385 301.337 871.33 294.573C875.558 287.81 879.362 280.342 882.744 272.169C884.153 268.224 885.28 264.278 886.126 260.333C886.971 256.387 887.535 252.16 887.816 247.651Z" fill="#27272A"/>
<path d="M1144.92 224.401C1148.3 225.529 1150.69 227.783 1152.1 231.165C1153.51 234.265 1153.51 237.365 1152.1 240.465C1150.41 245.538 1147.45 252.16 1143.23 260.333C1139 268.224 1134.49 276.396 1129.7 284.851C1124.91 293.305 1120.54 300.632 1116.59 306.832C1112.93 313.032 1110.68 316.696 1109.83 317.823C1100.81 327.686 1091.09 333.886 1080.66 336.423C1070.52 338.959 1060.37 338.818 1050.23 336C1040.36 333.182 1031.35 328.532 1023.17 322.05C1015.28 315.287 1009.22 307.537 1005 298.8C999.36 287.81 995.133 276.396 992.315 264.56C989.496 252.724 987.524 240.606 986.396 228.206C985.833 222.288 985.692 216.37 985.974 210.452C986.256 204.252 986.396 198.193 986.396 192.275C986.115 171.42 987.101 150.848 989.355 130.557C991.328 109.985 994.71 89.5533 999.501 69.2626C1001.76 60.2446 1004.71 51.6492 1008.38 43.4766C1012.32 35.0222 1017.11 27.1314 1022.75 19.8042C1029.8 10.7861 1037.69 5.00895 1046.42 2.47262C1055.44 -0.34552 1064.18 0.077204 1072.63 3.74079C1081.09 7.40437 1088.27 14.1679 1094.19 24.0314C1097.29 28.8223 1099.54 33.754 1100.95 38.8267C1102.36 43.8993 1103.21 49.1129 1103.49 54.4674C1106.31 87.4397 1099.83 118.298 1084.05 147.043C1079.25 156.061 1074.18 164.798 1068.83 173.252C1063.75 181.707 1058.26 190.02 1052.34 198.193C1050.93 199.602 1049.66 201.152 1048.54 202.843C1047.69 204.534 1047.27 206.506 1047.27 208.761C1047.55 223.133 1047.69 237.506 1047.69 251.878C1047.97 265.969 1050.09 279.919 1054.03 293.728C1054.6 296.546 1055.3 299.364 1056.15 302.182C1057.27 304.719 1058.68 307.255 1060.37 309.791C1062.63 312.891 1064.46 314.582 1065.87 314.864C1067.56 315.146 1070.1 314.018 1073.48 311.482C1079.11 307.255 1084.19 302.605 1088.7 297.532C1093.2 292.178 1097.43 286.682 1101.38 281.046C1106.45 274.283 1111.38 266.392 1116.17 257.374C1120.96 248.356 1125.19 239.619 1128.85 231.165C1130.26 228.065 1132.52 225.811 1135.62 224.401C1138.72 222.992 1141.82 222.992 1144.92 224.401ZM1073.05 29.9495C1063.75 51.6492 1057.7 73.9126 1054.88 96.7395C1052.34 119.285 1050.65 141.971 1049.8 164.798C1056.85 155.216 1062.49 145.071 1066.71 134.362C1070.94 123.653 1074.46 112.662 1077.28 101.389C1079.25 91.8078 1080.66 82.2261 1081.51 72.6444C1082.64 62.7809 1082.07 52.9174 1079.82 43.0539C1079.25 40.7994 1078.55 38.5449 1077.7 36.2903C1077.14 34.0358 1075.59 31.9222 1073.05 29.9495Z" fill="#27272A"/>
</svg>
